{
	"patcher" : 	{
		"fileversion" : 1,
		"rect" : [ 25.0, 69.0, 640.0, 480.0 ],
		"bglocked" : 0,
		"defrect" : [ 25.0, 69.0, 640.0, 480.0 ],
		"openrect" : [ 0.0, 0.0, 0.0, 0.0 ],
		"openinpresentation" : 0,
		"default_fontsize" : 12.0,
		"default_fontface" : 0,
		"default_fontname" : "Arial",
		"gridonopen" : 0,
		"gridsize" : [ 15.0, 15.0 ],
		"gridsnaponopen" : 0,
		"toolbarvisible" : 1,
		"boxanimatetime" : 200,
		"imprint" : 0,
		"enablehscroll" : 1,
		"enablevscroll" : 1,
		"devicewidth" : 0.0,
		"boxes" : [ 			{
				"box" : 				{
					"args" : [  ],
					"border" : 1,
					"embed" : 1,
					"id" : "obj-1",
					"maxclass" : "bpatcher",
					"name" : "multiwaveosc.maxpat",
					"numinlets" : 2,
					"numoutlets" : 1,
					"outlettype" : [ "signal" ],
					"patcher" : 					{
						"fileversion" : 1,
						"rect" : [ 2.0, 1.0, 147.0, 59.0 ],
						"bgcolor" : [ 1.0, 1.0, 1.0, 0.0 ],
						"bglocked" : 0,
						"defrect" : [ 2.0, 1.0, 147.0, 59.0 ],
						"openrect" : [ 0.0, 0.0, 0.0, 0.0 ],
						"openinpresentation" : 1,
						"default_fontsize" : 12.0,
						"default_fontface" : 0,
						"default_fontname" : "Arial",
						"gridonopen" : 0,
						"gridsize" : [ 15.0, 15.0 ],
						"gridsnaponopen" : 0,
						"toolbarvisible" : 1,
						"boxanimatetime" : 200,
						"imprint" : 0,
						"enablehscroll" : 1,
						"enablevscroll" : 1,
						"devicewidth" : 0.0,
						"boxes" : [ 							{
								"box" : 								{
									"fontname" : "Arial",
									"fontsize" : 12.0,
									"id" : "obj-3",
									"maxclass" : "newobj",
									"numinlets" : 0,
									"numoutlets" : 0,
									"patcher" : 									{
										"fileversion" : 1,
										"rect" : [ 424.0, 188.0, 640.0, 480.0 ],
										"bglocked" : 0,
										"defrect" : [ 424.0, 188.0, 640.0, 480.0 ],
										"openrect" : [ 0.0, 0.0, 0.0, 0.0 ],
										"openinpresentation" : 1,
										"default_fontsize" : 12.0,
										"default_fontface" : 1,
										"default_fontname" : "Arial",
										"gridonopen" : 0,
										"gridsize" : [ 15.0, 15.0 ],
										"gridsnaponopen" : 0,
										"toolbarvisible" : 1,
										"boxanimatetime" : 200,
										"imprint" : 0,
										"enablehscroll" : 1,
										"enablevscroll" : 1,
										"devicewidth" : 0.0,
										"title" : "Help",
										"boxes" : [ 											{
												"box" : 												{
													"fontname" : "Arial",
													"fontsize" : 12.0,
													"id" : "obj-2",
													"linecount" : 21,
													"maxclass" : "comment",
													"numinlets" : 1,
													"numoutlets" : 0,
													"patching_rect" : [ 1.0, 1.0, 431.0, 296.0 ],
													"presentation" : 1,
													"presentation_linecount" : 21,
													"presentation_rect" : [ 1.0, 1.0, 431.0, 296.0 ],
													"text" : "Multi-Wave Oscillator\n\nDescription:\nThis is an oscillator that has a variety of waveforms. This will use slightly more CPU than the Simple Sine module, but will provide you with different timbres.\n\n\nUsage:\n-The top drop-down box will select the shape of the waveform.\n-\"Frequency\" will set the frequency of the oscillator, in Hz.\n-\"Pulse Width\" determines the width of the square wave.\n\n\nInlets:\nFrequency - Set the frequency of the oscillator. Can be an integer or float.\nPulse Width - Set the width of the square wave. Must be a floating point value between 0.0 and 1.0.\n\n\nOutlets:\nOutput - Signal Output"
												}

											}
 ],
										"lines" : [  ]
									}
,
									"patching_rect" : [ 458.0, 89.0, 43.0, 20.0 ],
									"presentation" : 1,
									"presentation_rect" : [ 102.0, 1.0, 43.0, 20.0 ],
									"saved_object_attributes" : 									{
										"fontface" : 1,
										"fontsize" : 12.0,
										"default_fontface" : 1,
										"fontname" : "Arial",
										"default_fontname" : "Arial",
										"globalpatchername" : "",
										"default_fontsize" : 12.0
									}
,
									"text" : "p help"
								}

							}
, 							{
								"box" : 								{
									"comment" : "Pulse Width (0. - 1.0)",
									"id" : "obj-1",
									"maxclass" : "inlet",
									"numinlets" : 0,
									"numoutlets" : 1,
									"outlettype" : [ "" ],
									"patching_rect" : [ 369.0, 171.0, 25.0, 25.0 ]
								}

							}
, 							{
								"box" : 								{
									"fontname" : "Arial",
									"fontsize" : 12.0,
									"id" : "obj-66",
									"maxclass" : "message",
									"numinlets" : 2,
									"numoutlets" : 1,
									"outlettype" : [ "" ],
									"patching_rect" : [ 413.0, 152.0, 32.5, 18.0 ],
									"text" : "0"
								}

							}
, 							{
								"box" : 								{
									"comment" : "Signal Out",
									"id" : "obj-50",
									"maxclass" : "outlet",
									"numinlets" : 1,
									"numoutlets" : 0,
									"patching_rect" : [ 225.0, 346.0, 25.0, 25.0 ]
								}

							}
, 							{
								"box" : 								{
									"fontname" : "Arial",
									"fontsize" : 12.0,
									"id" : "obj-49",
									"maxclass" : "newobj",
									"numinlets" : 1,
									"numoutlets" : 2,
									"outlettype" : [ "int", "" ],
									"patcher" : 									{
										"fileversion" : 1,
										"rect" : [ 0.0, 0.0, 640.0, 480.0 ],
										"bglocked" : 0,
										"defrect" : [ 0.0, 0.0, 640.0, 480.0 ],
										"openrect" : [ 0.0, 0.0, 0.0, 0.0 ],
										"openinpresentation" : 0,
										"default_fontsize" : 12.0,
										"default_fontface" : 0,
										"default_fontname" : "Arial",
										"gridonopen" : 0,
										"gridsize" : [ 15.0, 15.0 ],
										"gridsnaponopen" : 0,
										"toolbarvisible" : 1,
										"boxanimatetime" : 200,
										"imprint" : 0,
										"enablehscroll" : 1,
										"enablevscroll" : 1,
										"devicewidth" : 0.0,
										"boxes" : [ 											{
												"box" : 												{
													"fontname" : "Arial",
													"fontsize" : 12.0,
													"id" : "obj-41",
													"maxclass" : "newobj",
													"numinlets" : 1,
													"numoutlets" : 4,
													"outlettype" : [ "bang", "bang", "bang", "" ],
													"patching_rect" : [ 111.0, 100.0, 72.0, 20.0 ],
													"text" : "select 1 2 3"
												}

											}
, 											{
												"box" : 												{
													"fontname" : "Arial",
													"fontsize" : 12.0,
													"id" : "obj-35",
													"maxclass" : "newobj",
													"numinlets" : 2,
													"numoutlets" : 1,
													"outlettype" : [ "int" ],
													"patching_rect" : [ 50.0, 173.0, 32.5, 20.0 ],
													"text" : "+ 1"
												}

											}
, 											{
												"box" : 												{
													"fontname" : "Arial",
													"fontsize" : 12.0,
													"id" : "obj-34",
													"maxclass" : "number",
													"numinlets" : 1,
													"numoutlets" : 2,
													"outlettype" : [ "int", "bang" ],
													"patching_rect" : [ 50.0, 133.0, 50.0, 20.0 ]
												}

											}
, 											{
												"box" : 												{
													"fontname" : "Arial",
													"fontsize" : 12.0,
													"id" : "obj-13",
													"maxclass" : "message",
													"numinlets" : 2,
													"numoutlets" : 1,
													"outlettype" : [ "" ],
													"patching_rect" : [ 185.0, 144.0, 32.5, 18.0 ],
													"text" : "1."
												}

											}
, 											{
												"box" : 												{
													"fontname" : "Arial",
													"fontsize" : 12.0,
													"id" : "obj-11",
													"maxclass" : "message",
													"numinlets" : 2,
													"numoutlets" : 1,
													"outlettype" : [ "" ],
													"patching_rect" : [ 151.0, 144.0, 32.5, 18.0 ],
													"text" : "0.5"
												}

											}
, 											{
												"box" : 												{
													"fontname" : "Arial",
													"fontsize" : 12.0,
													"id" : "obj-9",
													"maxclass" : "message",
													"numinlets" : 2,
													"numoutlets" : 1,
													"outlettype" : [ "" ],
													"patching_rect" : [ 115.0, 144.0, 32.5, 18.0 ],
													"text" : "0."
												}

											}
, 											{
												"box" : 												{
													"comment" : "",
													"id" : "obj-46",
													"maxclass" : "inlet",
													"numinlets" : 0,
													"numoutlets" : 1,
													"outlettype" : [ "int" ],
													"patching_rect" : [ 75.5, 40.0, 25.0, 25.0 ]
												}

											}
, 											{
												"box" : 												{
													"comment" : "",
													"id" : "obj-47",
													"maxclass" : "outlet",
													"numinlets" : 1,
													"numoutlets" : 0,
													"patching_rect" : [ 50.0, 253.0, 25.0, 25.0 ]
												}

											}
, 											{
												"box" : 												{
													"comment" : "",
													"id" : "obj-48",
													"maxclass" : "outlet",
													"numinlets" : 1,
													"numoutlets" : 0,
													"patching_rect" : [ 145.333328, 253.0, 25.0, 25.0 ]
												}

											}
 ],
										"lines" : [ 											{
												"patchline" : 												{
													"destination" : [ "obj-48", 0 ],
													"hidden" : 0,
													"midpoints" : [  ],
													"source" : [ "obj-11", 0 ]
												}

											}
, 											{
												"patchline" : 												{
													"destination" : [ "obj-48", 0 ],
													"hidden" : 0,
													"midpoints" : [  ],
													"source" : [ "obj-13", 0 ]
												}

											}
, 											{
												"patchline" : 												{
													"destination" : [ "obj-35", 0 ],
													"hidden" : 0,
													"midpoints" : [  ],
													"source" : [ "obj-34", 0 ]
												}

											}
, 											{
												"patchline" : 												{
													"destination" : [ "obj-47", 0 ],
													"hidden" : 0,
													"midpoints" : [  ],
													"source" : [ "obj-35", 0 ]
												}

											}
, 											{
												"patchline" : 												{
													"destination" : [ "obj-11", 0 ],
													"hidden" : 0,
													"midpoints" : [  ],
													"source" : [ "obj-41", 0 ]
												}

											}
, 											{
												"patchline" : 												{
													"destination" : [ "obj-13", 0 ],
													"hidden" : 0,
													"midpoints" : [  ],
													"source" : [ "obj-41", 2 ]
												}

											}
, 											{
												"patchline" : 												{
													"destination" : [ "obj-9", 0 ],
													"hidden" : 0,
													"midpoints" : [  ],
													"source" : [ "obj-41", 1 ]
												}

											}
, 											{
												"patchline" : 												{
													"destination" : [ "obj-34", 0 ],
													"hidden" : 0,
													"midpoints" : [  ],
													"source" : [ "obj-46", 0 ]
												}

											}
, 											{
												"patchline" : 												{
													"destination" : [ "obj-41", 0 ],
													"hidden" : 0,
													"midpoints" : [  ],
													"source" : [ "obj-46", 0 ]
												}

											}
, 											{
												"patchline" : 												{
													"destination" : [ "obj-48", 0 ],
													"hidden" : 0,
													"midpoints" : [  ],
													"source" : [ "obj-9", 0 ]
												}

											}
 ]
									}
,
									"patching_rect" : [ 75.0, 193.0, 80.0, 20.0 ],
									"saved_object_attributes" : 									{
										"fontface" : 0,
										"fontsize" : 12.0,
										"default_fontface" : 0,
										"fontname" : "Arial",
										"default_fontname" : "Arial",
										"globalpatchername" : "",
										"default_fontsize" : 12.0
									}
,
									"text" : "p waveselect"
								}

							}
, 							{
								"box" : 								{
									"fontname" : "Arial",
									"fontsize" : 12.0,
									"id" : "obj-45",
									"maxclass" : "comment",
									"numinlets" : 1,
									"numoutlets" : 0,
									"patching_rect" : [ 336.0, 85.0, 63.0, 20.0 ],
									"presentation" : 1,
									"presentation_rect" : [ 47.0, 20.0, 63.0, 20.0 ],
									"text" : "frequency"
								}

							}
, 							{
								"box" : 								{
									"fontname" : "Arial",
									"fontsize" : 12.0,
									"id" : "obj-42",
									"maxclass" : "newobj",
									"numinlets" : 2,
									"numoutlets" : 1,
									"outlettype" : [ "signal" ],
									"patching_rect" : [ 343.0, 262.0, 42.0, 20.0 ],
									"text" : "-~ 0.5"
								}

							}
, 							{
								"box" : 								{
									"fontname" : "Arial",
									"fontsize" : 12.0,
									"id" : "obj-40",
									"maxclass" : "comment",
									"numinlets" : 1,
									"numoutlets" : 0,
									"patching_rect" : [ 421.0, 201.0, 72.0, 20.0 ],
									"presentation" : 1,
									"presentation_rect" : [ 47.0, 39.0, 72.0, 20.0 ],
									"text" : "pulse width"
								}

							}
, 							{
								"box" : 								{
									"fontname" : "Arial",
									"fontsize" : 12.0,
									"id" : "obj-38",
									"maxclass" : "flonum",
									"maximum" : 1.0,
									"minimum" : 0.0,
									"numinlets" : 1,
									"numoutlets" : 2,
									"outlettype" : [ "float", "bang" ],
									"patching_rect" : [ 369.0, 201.0, 50.0, 20.0 ],
									"presentation" : 1,
									"presentation_rect" : [ -1.0, 39.0, 50.0, 20.0 ]
								}

							}
, 							{
								"box" : 								{
									"fontname" : "Arial",
									"fontsize" : 12.0,
									"id" : "obj-36",
									"maxclass" : "newobj",
									"numinlets" : 2,
									"numoutlets" : 1,
									"outlettype" : [ "signal" ],
									"patching_rect" : [ 343.0, 238.0, 45.0, 20.0 ],
									"text" : ">~ 0.5"
								}

							}
, 							{
								"box" : 								{
									"fontname" : "Arial",
									"fontsize" : 12.0,
									"id" : "obj-18",
									"items" : [ "Sine", ",", "Triangle", ",", "Ramp-Down", "Sawtooth", ",", "Ramp-Up", "Sawtooth", ",", "Square" ],
									"maxclass" : "umenu",
									"numinlets" : 1,
									"numoutlets" : 3,
									"outlettype" : [ "int", "", "" ],
									"patching_rect" : [ 75.0, 85.0, 100.0, 20.0 ],
									"presentation" : 1,
									"presentation_rect" : [ -1.0, 0.0, 100.0, 20.0 ],
									"types" : [  ]
								}

							}
, 							{
								"box" : 								{
									"fontname" : "Arial",
									"fontsize" : 12.0,
									"id" : "obj-17",
									"maxclass" : "newobj",
									"numinlets" : 6,
									"numoutlets" : 1,
									"outlettype" : [ "signal" ],
									"patching_rect" : [ 225.0, 297.0, 86.5, 20.0 ],
									"text" : "selector~ 5"
								}

							}
, 							{
								"box" : 								{
									"comment" : "Frequency",
									"id" : "obj-15",
									"maxclass" : "inlet",
									"numinlets" : 0,
									"numoutlets" : 1,
									"outlettype" : [ "" ],
									"patching_rect" : [ 276.0, 28.0, 25.0, 25.0 ]
								}

							}
, 							{
								"box" : 								{
									"fontname" : "Arial",
									"fontsize" : 12.0,
									"id" : "obj-14",
									"maxclass" : "newobj",
									"numinlets" : 1,
									"numoutlets" : 1,
									"outlettype" : [ "signal" ],
									"patching_rect" : [ 239.0, 238.0, 36.0, 20.0 ],
									"text" : "cos~"
								}

							}
, 							{
								"box" : 								{
									"fontname" : "Arial",
									"fontsize" : 12.0,
									"id" : "obj-5",
									"maxclass" : "newobj",
									"numinlets" : 2,
									"numoutlets" : 1,
									"outlettype" : [ "signal" ],
									"patching_rect" : [ 276.0, 238.0, 57.0, 20.0 ],
									"text" : "triangle~"
								}

							}
, 							{
								"box" : 								{
									"fontname" : "Arial",
									"fontsize" : 12.0,
									"id" : "obj-4",
									"maxclass" : "flonum",
									"numinlets" : 1,
									"numoutlets" : 2,
									"outlettype" : [ "float", "bang" ],
									"patching_rect" : [ 276.0, 85.0, 50.0, 20.0 ],
									"presentation" : 1,
									"presentation_rect" : [ -1.0, 20.0, 50.0, 20.0 ]
								}

							}
, 							{
								"box" : 								{
									"fontname" : "Arial",
									"fontsize" : 12.0,
									"id" : "obj-2",
									"maxclass" : "newobj",
									"numinlets" : 2,
									"numoutlets" : 1,
									"outlettype" : [ "signal" ],
									"patching_rect" : [ 276.0, 169.0, 54.0, 20.0 ],
									"text" : "phasor~"
								}

							}
 ],
						"lines" : [ 							{
								"patchline" : 								{
									"destination" : [ "obj-38", 0 ],
									"hidden" : 0,
									"midpoints" : [  ],
									"source" : [ "obj-1", 0 ]
								}

							}
, 							{
								"patchline" : 								{
									"destination" : [ "obj-17", 1 ],
									"hidden" : 0,
									"midpoints" : [  ],
									"source" : [ "obj-14", 0 ]
								}

							}
, 							{
								"patchline" : 								{
									"destination" : [ "obj-4", 0 ],
									"hidden" : 0,
									"midpoints" : [  ],
									"source" : [ "obj-15", 0 ]
								}

							}
, 							{
								"patchline" : 								{
									"destination" : [ "obj-50", 0 ],
									"hidden" : 0,
									"midpoints" : [  ],
									"source" : [ "obj-17", 0 ]
								}

							}
, 							{
								"patchline" : 								{
									"destination" : [ "obj-49", 0 ],
									"hidden" : 0,
									"midpoints" : [  ],
									"source" : [ "obj-18", 0 ]
								}

							}
, 							{
								"patchline" : 								{
									"destination" : [ "obj-14", 0 ],
									"hidden" : 0,
									"midpoints" : [ 285.5, 213.0, 248.5, 213.0 ],
									"source" : [ "obj-2", 0 ]
								}

							}
, 							{
								"patchline" : 								{
									"destination" : [ "obj-36", 0 ],
									"hidden" : 0,
									"midpoints" : [ 285.5, 213.0, 352.5, 213.0 ],
									"source" : [ "obj-2", 0 ]
								}

							}
, 							{
								"patchline" : 								{
									"destination" : [ "obj-5", 0 ],
									"hidden" : 0,
									"midpoints" : [  ],
									"source" : [ "obj-2", 0 ]
								}

							}
, 							{
								"patchline" : 								{
									"destination" : [ "obj-42", 0 ],
									"hidden" : 0,
									"midpoints" : [  ],
									"source" : [ "obj-36", 0 ]
								}

							}
, 							{
								"patchline" : 								{
									"destination" : [ "obj-36", 1 ],
									"hidden" : 0,
									"midpoints" : [  ],
									"source" : [ "obj-38", 0 ]
								}

							}
, 							{
								"patchline" : 								{
									"destination" : [ "obj-2", 0 ],
									"hidden" : 0,
									"midpoints" : [  ],
									"source" : [ "obj-4", 0 ]
								}

							}
, 							{
								"patchline" : 								{
									"destination" : [ "obj-17", 5 ],
									"hidden" : 0,
									"midpoints" : [ 352.5, 289.0, 302.0, 289.0 ],
									"source" : [ "obj-42", 0 ]
								}

							}
, 							{
								"patchline" : 								{
									"destination" : [ "obj-17", 0 ],
									"hidden" : 0,
									"midpoints" : [ 84.5, 244.0, 234.5, 244.0 ],
									"source" : [ "obj-49", 0 ]
								}

							}
, 							{
								"patchline" : 								{
									"destination" : [ "obj-5", 1 ],
									"hidden" : 0,
									"midpoints" : [ 145.5, 225.0, 323.5, 225.0 ],
									"source" : [ "obj-49", 1 ]
								}

							}
, 							{
								"patchline" : 								{
									"destination" : [ "obj-17", 4 ],
									"hidden" : 0,
									"midpoints" : [  ],
									"source" : [ "obj-5", 0 ]
								}

							}
, 							{
								"patchline" : 								{
									"destination" : [ "obj-17", 3 ],
									"hidden" : 0,
									"midpoints" : [  ],
									"source" : [ "obj-5", 0 ]
								}

							}
, 							{
								"patchline" : 								{
									"destination" : [ "obj-17", 2 ],
									"hidden" : 0,
									"midpoints" : [  ],
									"source" : [ "obj-5", 0 ]
								}

							}
, 							{
								"patchline" : 								{
									"destination" : [ "obj-2", 1 ],
									"hidden" : 0,
									"midpoints" : [  ],
									"source" : [ "obj-66", 0 ]
								}

							}
 ]
					}
,
					"patching_rect" : [ 2.0, 1.0, 147.0, 59.0 ]
				}

			}
 ],
		"lines" : [  ]
	}

}
