{
	"patcher" : 	{
		"fileversion" : 1,
		"appversion" : 		{
			"major" : 6,
			"minor" : 1,
			"revision" : 0,
			"architecture" : "x86"
		}
,
		"rect" : [ 25.0, 69.0, 640.0, 480.0 ],
		"bglocked" : 0,
		"openinpresentation" : 0,
		"default_fontsize" : 12.0,
		"default_fontface" : 0,
		"default_fontname" : "Helvetica",
		"gridonopen" : 0,
		"gridsize" : [ 15.0, 15.0 ],
		"gridsnaponopen" : 0,
		"statusbarvisible" : 1,
		"toolbarvisible" : 1,
		"boxanimatetime" : 200,
		"imprint" : 0,
		"enablehscroll" : 1,
		"enablevscroll" : 1,
		"devicewidth" : 0.0,
		"description" : "",
		"digest" : "",
		"tags" : "",
		"boxes" : [ 			{
				"box" : 				{
					"border" : 1,
					"embed" : 1,
					"id" : "obj-2",
					"maxclass" : "bpatcher",
					"name" : "quadratureosc.maxpat",
					"numinlets" : 1,
					"numoutlets" : 4,
					"outlettype" : [ "signal", "signal", "signal", "signal" ],
					"patcher" : 					{
						"fileversion" : 1,
						"appversion" : 						{
							"major" : 6,
							"minor" : 1,
							"revision" : 0,
							"architecture" : "x86"
						}
,
						"rect" : [ 28.0, 72.0, 134.0, 57.0 ],
						"bgcolor" : [ 1.0, 1.0, 1.0, 0.0 ],
						"bglocked" : 0,
						"openinpresentation" : 1,
						"default_fontsize" : 12.0,
						"default_fontface" : 0,
						"default_fontname" : "Helvetica",
						"gridonopen" : 0,
						"gridsize" : [ 15.0, 15.0 ],
						"gridsnaponopen" : 0,
						"statusbarvisible" : 1,
						"toolbarvisible" : 1,
						"boxanimatetime" : 200,
						"imprint" : 0,
						"enablehscroll" : 1,
						"enablevscroll" : 1,
						"devicewidth" : 0.0,
						"description" : "",
						"digest" : "",
						"tags" : "",
						"boxes" : [ 							{
								"box" : 								{
									"fontname" : "Helvetica",
									"fontsize" : 12.0,
									"id" : "obj-37",
									"maxclass" : "newobj",
									"numinlets" : 2,
									"numoutlets" : 1,
									"outlettype" : [ "signal" ],
									"patching_rect" : [ 299.0, 183.0, 36.0, 18.0 ],
									"text" : "*~ -1"
								}

							}
, 							{
								"box" : 								{
									"fontname" : "Helvetica",
									"fontsize" : 12.0,
									"id" : "obj-36",
									"maxclass" : "newobj",
									"numinlets" : 2,
									"numoutlets" : 1,
									"outlettype" : [ "signal" ],
									"patching_rect" : [ 380.0, 183.0, 36.0, 18.0 ],
									"text" : "*~ -1"
								}

							}
, 							{
								"box" : 								{
									"fontface" : 1,
									"fontname" : "Helvetica",
									"fontsize" : 12.0,
									"frgb" : 0.0,
									"id" : "obj-30",
									"maxclass" : "comment",
									"numinlets" : 1,
									"numoutlets" : 0,
									"patching_rect" : [ 287.0, 18.0, 130.0, 18.0 ],
									"presentation" : 1,
									"presentation_rect" : [ 4.0, 4.0, 130.0, 18.0 ],
									"text" : "quadrature oscillator"
								}

							}
, 							{
								"box" : 								{
									"comment" : "Inv Sin Out (180)",
									"id" : "obj-17",
									"maxclass" : "outlet",
									"numinlets" : 1,
									"numoutlets" : 0,
									"patching_rect" : [ 299.0, 217.0, 25.0, 25.0 ]
								}

							}
, 							{
								"box" : 								{
									"fontname" : "Helvetica",
									"fontsize" : 12.0,
									"id" : "obj-18",
									"maxclass" : "newobj",
									"numinlets" : 1,
									"numoutlets" : 1,
									"outlettype" : [ "signal" ],
									"patching_rect" : [ 299.0, 151.0, 39.0, 18.0 ],
									"text" : "sinx~"
								}

							}
, 							{
								"box" : 								{
									"comment" : "Inv Cosine Out (270)",
									"id" : "obj-19",
									"maxclass" : "outlet",
									"numinlets" : 1,
									"numoutlets" : 0,
									"patching_rect" : [ 380.0, 217.0, 25.0, 25.0 ]
								}

							}
, 							{
								"box" : 								{
									"fontname" : "Helvetica",
									"fontsize" : 12.0,
									"id" : "obj-20",
									"maxclass" : "newobj",
									"numinlets" : 2,
									"numoutlets" : 1,
									"outlettype" : [ "signal" ],
									"patching_rect" : [ 299.0, 120.0, 54.0, 18.0 ],
									"text" : "phasor~"
								}

							}
, 							{
								"box" : 								{
									"fontname" : "Helvetica",
									"fontsize" : 12.0,
									"id" : "obj-21",
									"maxclass" : "newobj",
									"numinlets" : 2,
									"numoutlets" : 1,
									"outlettype" : [ "signal" ],
									"patching_rect" : [ 380.0, 121.0, 54.0, 18.0 ],
									"text" : "phasor~"
								}

							}
, 							{
								"box" : 								{
									"fontname" : "Helvetica",
									"fontsize" : 12.0,
									"id" : "obj-22",
									"maxclass" : "newobj",
									"numinlets" : 1,
									"numoutlets" : 1,
									"outlettype" : [ "signal" ],
									"patching_rect" : [ 380.0, 152.0, 42.0, 18.0 ],
									"text" : "cosx~"
								}

							}
, 							{
								"box" : 								{
									"comment" : "Sin Out (0)",
									"id" : "obj-16",
									"maxclass" : "outlet",
									"numinlets" : 1,
									"numoutlets" : 0,
									"patching_rect" : [ 134.0, 216.0, 25.0, 25.0 ]
								}

							}
, 							{
								"box" : 								{
									"fontname" : "Helvetica",
									"fontsize" : 12.0,
									"id" : "obj-15",
									"maxclass" : "newobj",
									"numinlets" : 1,
									"numoutlets" : 1,
									"outlettype" : [ "signal" ],
									"patching_rect" : [ 134.0, 150.0, 39.0, 18.0 ],
									"text" : "sinx~"
								}

							}
, 							{
								"box" : 								{
									"comment" : "Cosine Out (90)",
									"id" : "obj-14",
									"maxclass" : "outlet",
									"numinlets" : 1,
									"numoutlets" : 0,
									"patching_rect" : [ 215.0, 216.0, 25.0, 25.0 ]
								}

							}
, 							{
								"box" : 								{
									"comment" : "Frequency In",
									"id" : "obj-13",
									"maxclass" : "inlet",
									"numinlets" : 0,
									"numoutlets" : 1,
									"outlettype" : [ "" ],
									"patching_rect" : [ 215.0, 7.0, 25.0, 25.0 ]
								}

							}
, 							{
								"box" : 								{
									"fontname" : "Helvetica",
									"fontsize" : 12.0,
									"frgb" : 0.0,
									"id" : "obj-12",
									"maxclass" : "comment",
									"numinlets" : 1,
									"numoutlets" : 0,
									"patching_rect" : [ 271.0, 47.0, 66.0, 18.0 ],
									"presentation" : 1,
									"presentation_rect" : [ 60.0, 33.0, 66.0, 18.0 ],
									"text" : "frequency"
								}

							}
, 							{
								"box" : 								{
									"fontname" : "Helvetica",
									"fontsize" : 12.0,
									"id" : "obj-10",
									"maxclass" : "flonum",
									"numinlets" : 1,
									"numoutlets" : 2,
									"outlettype" : [ "float", "bang" ],
									"parameter_enable" : 0,
									"patching_rect" : [ 215.0, 47.0, 50.0, 18.0 ],
									"presentation" : 1,
									"presentation_rect" : [ 4.0, 33.0, 50.0, 18.0 ]
								}

							}
, 							{
								"box" : 								{
									"fontname" : "Helvetica",
									"fontsize" : 12.0,
									"id" : "obj-3",
									"maxclass" : "newobj",
									"numinlets" : 2,
									"numoutlets" : 1,
									"outlettype" : [ "signal" ],
									"patching_rect" : [ 134.0, 119.0, 54.0, 18.0 ],
									"text" : "phasor~"
								}

							}
, 							{
								"box" : 								{
									"fontname" : "Helvetica",
									"fontsize" : 12.0,
									"id" : "obj-2",
									"maxclass" : "newobj",
									"numinlets" : 2,
									"numoutlets" : 1,
									"outlettype" : [ "signal" ],
									"patching_rect" : [ 215.0, 120.0, 54.0, 18.0 ],
									"text" : "phasor~"
								}

							}
, 							{
								"box" : 								{
									"fontname" : "Helvetica",
									"fontsize" : 12.0,
									"id" : "obj-1",
									"maxclass" : "newobj",
									"numinlets" : 1,
									"numoutlets" : 1,
									"outlettype" : [ "signal" ],
									"patching_rect" : [ 215.0, 151.0, 42.0, 18.0 ],
									"text" : "cosx~"
								}

							}
 ],
						"lines" : [ 							{
								"patchline" : 								{
									"destination" : [ "obj-14", 0 ],
									"disabled" : 0,
									"hidden" : 0,
									"source" : [ "obj-1", 0 ]
								}

							}
, 							{
								"patchline" : 								{
									"destination" : [ "obj-2", 0 ],
									"disabled" : 0,
									"hidden" : 0,
									"source" : [ "obj-10", 0 ]
								}

							}
, 							{
								"patchline" : 								{
									"destination" : [ "obj-20", 0 ],
									"disabled" : 0,
									"hidden" : 0,
									"source" : [ "obj-10", 0 ]
								}

							}
, 							{
								"patchline" : 								{
									"destination" : [ "obj-21", 0 ],
									"disabled" : 0,
									"hidden" : 0,
									"source" : [ "obj-10", 0 ]
								}

							}
, 							{
								"patchline" : 								{
									"destination" : [ "obj-3", 0 ],
									"disabled" : 0,
									"hidden" : 0,
									"source" : [ "obj-10", 0 ]
								}

							}
, 							{
								"patchline" : 								{
									"destination" : [ "obj-10", 0 ],
									"disabled" : 0,
									"hidden" : 0,
									"source" : [ "obj-13", 0 ]
								}

							}
, 							{
								"patchline" : 								{
									"destination" : [ "obj-16", 0 ],
									"disabled" : 0,
									"hidden" : 0,
									"source" : [ "obj-15", 0 ]
								}

							}
, 							{
								"patchline" : 								{
									"destination" : [ "obj-37", 0 ],
									"disabled" : 0,
									"hidden" : 0,
									"source" : [ "obj-18", 0 ]
								}

							}
, 							{
								"patchline" : 								{
									"destination" : [ "obj-1", 0 ],
									"disabled" : 0,
									"hidden" : 0,
									"source" : [ "obj-2", 0 ]
								}

							}
, 							{
								"patchline" : 								{
									"destination" : [ "obj-18", 0 ],
									"disabled" : 0,
									"hidden" : 0,
									"source" : [ "obj-20", 0 ]
								}

							}
, 							{
								"patchline" : 								{
									"destination" : [ "obj-22", 0 ],
									"disabled" : 0,
									"hidden" : 0,
									"source" : [ "obj-21", 0 ]
								}

							}
, 							{
								"patchline" : 								{
									"destination" : [ "obj-36", 0 ],
									"disabled" : 0,
									"hidden" : 0,
									"source" : [ "obj-22", 0 ]
								}

							}
, 							{
								"patchline" : 								{
									"destination" : [ "obj-15", 0 ],
									"disabled" : 0,
									"hidden" : 0,
									"source" : [ "obj-3", 0 ]
								}

							}
, 							{
								"patchline" : 								{
									"destination" : [ "obj-19", 0 ],
									"disabled" : 0,
									"hidden" : 0,
									"source" : [ "obj-36", 0 ]
								}

							}
, 							{
								"patchline" : 								{
									"destination" : [ "obj-17", 0 ],
									"disabled" : 0,
									"hidden" : 0,
									"source" : [ "obj-37", 0 ]
								}

							}
 ]
					}
,
					"patching_rect" : [ 3.0, 3.0, 134.0, 57.0 ]
				}

			}
 ],
		"lines" : [  ],
		"dependency_cache" : [ 			{
				"name" : "quadratureosc.maxpat",
				"bootpath" : "/Users/Tricky/Dropbox/Max Files/Max 6/Euromax Updates",
				"patcherrelativepath" : "",
				"type" : "JSON",
				"implicit" : 1
			}
 ]
	}

}
