{
	"patcher" : 	{
		"fileversion" : 1,
		"appversion" : 		{
			"major" : 6,
			"minor" : 1,
			"revision" : 0,
			"architecture" : "x86"
		}
,
		"rect" : [ 91.0, 75.0, 692.0, 583.0 ],
		"bglocked" : 0,
		"openinpresentation" : 0,
		"default_fontsize" : 12.0,
		"default_fontface" : 0,
		"default_fontname" : "Helvetica",
		"gridonopen" : 0,
		"gridsize" : [ 15.0, 15.0 ],
		"gridsnaponopen" : 0,
		"statusbarvisible" : 1,
		"toolbarvisible" : 1,
		"boxanimatetime" : 200,
		"imprint" : 0,
		"enablehscroll" : 1,
		"enablevscroll" : 1,
		"devicewidth" : 0.0,
		"description" : "",
		"digest" : "",
		"tags" : "",
		"boxes" : [ 			{
				"box" : 				{
					"border" : 1,
					"embed" : 1,
					"id" : "obj-99",
					"maxclass" : "bpatcher",
					"name" : "glissongen.maxpat",
					"numinlets" : 5,
					"numoutlets" : 1,
					"outlettype" : [ "signal" ],
					"patcher" : 					{
						"fileversion" : 1,
						"appversion" : 						{
							"major" : 6,
							"minor" : 1,
							"revision" : 0,
							"architecture" : "x86"
						}
,
						"rect" : [ 94.0, 78.0, 324.0, 176.0 ],
						"bgcolor" : [ 1.0, 1.0, 1.0, 0.0 ],
						"bglocked" : 0,
						"openinpresentation" : 1,
						"default_fontsize" : 12.0,
						"default_fontface" : 0,
						"default_fontname" : "Helvetica",
						"gridonopen" : 0,
						"gridsize" : [ 15.0, 15.0 ],
						"gridsnaponopen" : 0,
						"statusbarvisible" : 1,
						"toolbarvisible" : 1,
						"boxanimatetime" : 200,
						"imprint" : 0,
						"enablehscroll" : 1,
						"enablevscroll" : 1,
						"devicewidth" : 0.0,
						"description" : "",
						"digest" : "",
						"tags" : "",
						"boxes" : [ 							{
								"box" : 								{
									"comment" : "Audio In",
									"id" : "obj-1",
									"maxclass" : "inlet",
									"numinlets" : 0,
									"numoutlets" : 1,
									"outlettype" : [ "" ],
									"patching_rect" : [ 38.5, 177.0, 25.0, 25.0 ]
								}

							}
, 							{
								"box" : 								{
									"comment" : "Decay Time (in ms)",
									"id" : "obj-40",
									"maxclass" : "inlet",
									"numinlets" : 0,
									"numoutlets" : 1,
									"outlettype" : [ "" ],
									"patching_rect" : [ 402.5, 178.0, 25.0, 25.0 ]
								}

							}
, 							{
								"box" : 								{
									"comment" : "Attack Time (in ms)",
									"id" : "obj-39",
									"maxclass" : "inlet",
									"numinlets" : 0,
									"numoutlets" : 1,
									"outlettype" : [ "" ],
									"patching_rect" : [ 305.0, 178.0, 25.0, 25.0 ]
								}

							}
, 							{
								"box" : 								{
									"comment" : "Amplitude In",
									"id" : "obj-38",
									"maxclass" : "inlet",
									"numinlets" : 0,
									"numoutlets" : 1,
									"outlettype" : [ "" ],
									"patching_rect" : [ 207.5, 178.0, 25.0, 25.0 ]
								}

							}
, 							{
								"box" : 								{
									"border" : 1,
									"embed" : 1,
									"id" : "obj-36",
									"maxclass" : "bpatcher",
									"name" : "windowGen.maxpat",
									"numinlets" : 4,
									"numoutlets" : 1,
									"outlettype" : [ "signal" ],
									"patcher" : 									{
										"fileversion" : 1,
										"appversion" : 										{
											"major" : 6,
											"minor" : 1,
											"revision" : 0,
											"architecture" : "x86"
										}
,
										"rect" : [ 98.0, 107.0, 310.0, 138.0 ],
										"bgcolor" : [ 1.0, 1.0, 1.0, 0.0 ],
										"bglocked" : 0,
										"openinpresentation" : 1,
										"default_fontsize" : 12.0,
										"default_fontface" : 0,
										"default_fontname" : "Helvetica",
										"gridonopen" : 0,
										"gridsize" : [ 15.0, 15.0 ],
										"gridsnaponopen" : 0,
										"statusbarvisible" : 1,
										"toolbarvisible" : 1,
										"boxanimatetime" : 200,
										"imprint" : 0,
										"enablehscroll" : 1,
										"enablevscroll" : 1,
										"devicewidth" : 0.0,
										"description" : "",
										"digest" : "",
										"tags" : "",
										"boxes" : [ 											{
												"box" : 												{
													"comment" : "Decay Time In (in ms)",
													"id" : "obj-11",
													"maxclass" : "inlet",
													"numinlets" : 0,
													"numoutlets" : 1,
													"outlettype" : [ "" ],
													"patching_rect" : [ 421.0, 37.0, 25.0, 25.0 ]
												}

											}
, 											{
												"box" : 												{
													"comment" : "Attack Time In (in ms)",
													"id" : "obj-2",
													"maxclass" : "inlet",
													"numinlets" : 0,
													"numoutlets" : 1,
													"outlettype" : [ "" ],
													"patching_rect" : [ 230.0, 37.0, 25.0, 25.0 ]
												}

											}
, 											{
												"box" : 												{
													"comment" : "Amplitude In",
													"id" : "obj-1",
													"maxclass" : "inlet",
													"numinlets" : 0,
													"numoutlets" : 1,
													"outlettype" : [ "" ],
													"patching_rect" : [ 179.0, 37.0, 25.0, 25.0 ]
												}

											}
, 											{
												"box" : 												{
													"fontface" : 2,
													"fontname" : "Helvetica",
													"fontsize" : 12.0,
													"frgb" : 0.0,
													"id" : "obj-22",
													"maxclass" : "comment",
													"numinlets" : 1,
													"numoutlets" : 0,
													"patching_rect" : [ 321.5, 97.0, 109.0, 18.0 ],
													"presentation" : 1,
													"presentation_rect" : [ 115.0, 2.0, 103.0, 18.0 ],
													"text" : "window generator"
												}

											}
, 											{
												"box" : 												{
													"fontname" : "Helvetica",
													"fontsize" : 12.0,
													"id" : "obj-20",
													"maxclass" : "newobj",
													"numinlets" : 1,
													"numoutlets" : 1,
													"outlettype" : [ "" ],
													"patching_rect" : [ 126.5, 318.0, 65.0, 18.0 ],
													"text" : "prepend 0"
												}

											}
, 											{
												"box" : 												{
													"fontname" : "Helvetica",
													"fontsize" : 12.0,
													"id" : "obj-18",
													"maxclass" : "newobj",
													"numinlets" : 6,
													"numoutlets" : 1,
													"outlettype" : [ "" ],
													"patching_rect" : [ 126.5, 270.0, 86.5, 18.0 ],
													"text" : "pak f f f 0. f f"
												}

											}
, 											{
												"box" : 												{
													"fontname" : "Helvetica",
													"fontsize" : 12.0,
													"id" : "obj-17",
													"maxclass" : "newobj",
													"numinlets" : 1,
													"numoutlets" : 1,
													"outlettype" : [ "" ],
													"patching_rect" : [ 126.5, 293.0, 61.0, 18.0 ],
													"text" : "prepend \\,"
												}

											}
, 											{
												"box" : 												{
													"fontname" : "Helvetica",
													"fontsize" : 12.0,
													"frgb" : 0.0,
													"id" : "obj-14",
													"maxclass" : "comment",
													"numinlets" : 1,
													"numoutlets" : 0,
													"patching_rect" : [ 248.0, 120.0, 64.0, 18.0 ],
													"presentation" : 1,
													"presentation_rect" : [ 163.5, 28.0, 64.0, 18.0 ],
													"text" : "amplitude"
												}

											}
, 											{
												"box" : 												{
													"fontname" : "Helvetica",
													"fontsize" : 12.0,
													"id" : "obj-12",
													"maxclass" : "flonum",
													"maximum" : 1.0,
													"minimum" : 0.0,
													"numinlets" : 1,
													"numoutlets" : 2,
													"outlettype" : [ "float", "bang" ],
													"parameter_enable" : 0,
													"patching_rect" : [ 179.0, 119.0, 50.0, 18.0 ],
													"presentation" : 1,
													"presentation_rect" : [ 102.5, 28.0, 50.0, 18.0 ]
												}

											}
, 											{
												"box" : 												{
													"fontname" : "Helvetica",
													"fontsize" : 12.0,
													"frgb" : 0.0,
													"id" : "obj-7",
													"maxclass" : "comment",
													"numinlets" : 1,
													"numoutlets" : 0,
													"patching_rect" : [ 505.5, 193.0, 73.0, 18.0 ],
													"presentation" : 1,
													"presentation_rect" : [ 239.0, 111.0, 73.0, 18.0 ],
													"text" : "decay curve"
												}

											}
, 											{
												"box" : 												{
													"embed" : 1,
													"id" : "obj-8",
													"maxclass" : "bpatcher",
													"name" : "curveselectknob.maxpat",
													"numinlets" : 1,
													"numoutlets" : 1,
													"outlettype" : [ "" ],
													"patcher" : 													{
														"fileversion" : 1,
														"appversion" : 														{
															"major" : 6,
															"minor" : 1,
															"revision" : 0,
															"architecture" : "x86"
														}
,
														"rect" : [ 268.0, 190.0, 72.0, 46.0 ],
														"bgcolor" : [ 1.0, 1.0, 1.0, 0.0 ],
														"bglocked" : 0,
														"openinpresentation" : 1,
														"default_fontsize" : 12.0,
														"default_fontface" : 0,
														"default_fontname" : "Helvetica",
														"gridonopen" : 0,
														"gridsize" : [ 15.0, 15.0 ],
														"gridsnaponopen" : 0,
														"statusbarvisible" : 1,
														"toolbarvisible" : 1,
														"boxanimatetime" : 200,
														"imprint" : 0,
														"enablehscroll" : 1,
														"enablevscroll" : 1,
														"devicewidth" : 0.0,
														"description" : "",
														"digest" : "",
														"tags" : "",
														"boxes" : [ 															{
																"box" : 																{
																	"comment" : "Value Input",
																	"id" : "obj-9",
																	"maxclass" : "inlet",
																	"numinlets" : 0,
																	"numoutlets" : 1,
																	"outlettype" : [ "" ],
																	"patching_rect" : [ 118.0, 18.0, 25.0, 25.0 ]
																}

															}
, 															{
																"box" : 																{
																	"comment" : "Knob Value",
																	"id" : "obj-8",
																	"maxclass" : "outlet",
																	"numinlets" : 1,
																	"numoutlets" : 0,
																	"patching_rect" : [ 118.0, 196.0, 25.0, 25.0 ]
																}

															}
, 															{
																"box" : 																{
																	"fontname" : "Helvetica",
																	"fontsize" : 10.0,
																	"frgb" : 0.0,
																	"id" : "obj-7",
																	"maxclass" : "comment",
																	"numinlets" : 1,
																	"numoutlets" : 0,
																	"patching_rect" : [ 101.0, 118.0, 22.0, 16.0 ],
																	"presentation" : 1,
																	"presentation_rect" : [ -1.0, 29.0, 22.0, 16.0 ],
																	"text" : "log"
																}

															}
, 															{
																"box" : 																{
																	"fontname" : "Helvetica",
																	"fontsize" : 10.0,
																	"frgb" : 0.0,
																	"id" : "obj-5",
																	"maxclass" : "comment",
																	"numinlets" : 1,
																	"numoutlets" : 0,
																	"patching_rect" : [ 126.0, 86.0, 24.0, 16.0 ],
																	"presentation" : 1,
																	"presentation_rect" : [ 24.0, -3.0, 24.0, 16.0 ],
																	"text" : "lin"
																}

															}
, 															{
																"box" : 																{
																	"fontname" : "Helvetica",
																	"fontsize" : 10.0,
																	"frgb" : 0.0,
																	"id" : "obj-3",
																	"maxclass" : "comment",
																	"numinlets" : 1,
																	"numoutlets" : 0,
																	"patching_rect" : [ 147.0, 118.0, 26.0, 16.0 ],
																	"presentation" : 1,
																	"presentation_rect" : [ 45.0, 29.0, 26.0, 16.0 ],
																	"text" : "exp"
																}

															}
, 															{
																"box" : 																{
																	"id" : "obj-1",
																	"maxclass" : "live.dial",
																	"numinlets" : 1,
																	"numoutlets" : 2,
																	"outlettype" : [ "", "float" ],
																	"parameter_enable" : 1,
																	"patching_rect" : [ 118.0, 101.0, 34.0, 27.0 ],
																	"presentation" : 1,
																	"presentation_rect" : [ 16.0, 12.0, 34.0, 27.0 ],
																	"saved_attribute_attributes" : 																	{
																		"valueof" : 																		{
																			"parameter_mmin" : -1.0,
																			"parameter_initial" : [ 0 ],
																			"parameter_type" : 0,
																			"parameter_shortname" : "live.dial",
																			"parameter_longname" : "live.dial[2]",
																			"parameter_unitstyle" : 1,
																			"parameter_mmax" : 1.0
																		}

																	}
,
																	"showname" : 0,
																	"shownumber" : 0,
																	"varname" : "live.dial"
																}

															}
 ],
														"lines" : [ 															{
																"patchline" : 																{
																	"destination" : [ "obj-8", 0 ],
																	"disabled" : 0,
																	"hidden" : 0,
																	"source" : [ "obj-1", 0 ]
																}

															}
, 															{
																"patchline" : 																{
																	"destination" : [ "obj-1", 0 ],
																	"disabled" : 0,
																	"hidden" : 0,
																	"source" : [ "obj-9", 0 ]
																}

															}
 ]
													}
,
													"patching_rect" : [ 421.0, 193.0, 72.0, 46.0 ],
													"presentation" : 1,
													"presentation_rect" : [ 169.5, 83.0, 72.0, 46.0 ]
												}

											}
, 											{
												"box" : 												{
													"fontname" : "Helvetica",
													"fontsize" : 12.0,
													"frgb" : 0.0,
													"id" : "obj-9",
													"maxclass" : "comment",
													"numinlets" : 1,
													"numoutlets" : 0,
													"patching_rect" : [ 479.5, 159.0, 99.0, 18.0 ],
													"presentation" : 1,
													"presentation_linecount" : 2,
													"presentation_rect" : [ 239.0, 57.0, 70.0, 30.0 ],
													"text" : "decay time (ms)"
												}

											}
, 											{
												"box" : 												{
													"fontname" : "Helvetica",
													"fontsize" : 12.0,
													"id" : "obj-10",
													"maxclass" : "flonum",
													"minimum" : 0.0,
													"numinlets" : 1,
													"numoutlets" : 2,
													"outlettype" : [ "float", "bang" ],
													"parameter_enable" : 0,
													"patching_rect" : [ 421.0, 159.0, 50.0, 18.0 ],
													"presentation" : 1,
													"presentation_rect" : [ 180.5, 57.0, 50.0, 18.0 ]
												}

											}
, 											{
												"box" : 												{
													"fontname" : "Helvetica",
													"fontsize" : 12.0,
													"frgb" : 0.0,
													"id" : "obj-3",
													"maxclass" : "comment",
													"numinlets" : 1,
													"numoutlets" : 0,
													"patching_rect" : [ 321.5, 193.0, 73.0, 18.0 ],
													"presentation" : 1,
													"presentation_rect" : [ 79.5, 111.0, 73.0, 18.0 ],
													"text" : "attack curve"
												}

											}
, 											{
												"box" : 												{
													"embed" : 1,
													"id" : "obj-4",
													"maxclass" : "bpatcher",
													"name" : "curveselectknob.maxpat",
													"numinlets" : 1,
													"numoutlets" : 1,
													"outlettype" : [ "" ],
													"patcher" : 													{
														"fileversion" : 1,
														"appversion" : 														{
															"major" : 6,
															"minor" : 1,
															"revision" : 0,
															"architecture" : "x86"
														}
,
														"rect" : [ 103.0, 190.0, 72.0, 46.0 ],
														"bgcolor" : [ 1.0, 1.0, 1.0, 0.0 ],
														"bglocked" : 0,
														"openinpresentation" : 1,
														"default_fontsize" : 12.0,
														"default_fontface" : 0,
														"default_fontname" : "Helvetica",
														"gridonopen" : 0,
														"gridsize" : [ 15.0, 15.0 ],
														"gridsnaponopen" : 0,
														"statusbarvisible" : 1,
														"toolbarvisible" : 1,
														"boxanimatetime" : 200,
														"imprint" : 0,
														"enablehscroll" : 1,
														"enablevscroll" : 1,
														"devicewidth" : 0.0,
														"description" : "",
														"digest" : "",
														"tags" : "",
														"boxes" : [ 															{
																"box" : 																{
																	"comment" : "Value Input",
																	"id" : "obj-9",
																	"maxclass" : "inlet",
																	"numinlets" : 0,
																	"numoutlets" : 1,
																	"outlettype" : [ "" ],
																	"patching_rect" : [ 118.0, 18.0, 25.0, 25.0 ]
																}

															}
, 															{
																"box" : 																{
																	"comment" : "Knob Value",
																	"id" : "obj-8",
																	"maxclass" : "outlet",
																	"numinlets" : 1,
																	"numoutlets" : 0,
																	"patching_rect" : [ 118.0, 196.0, 25.0, 25.0 ]
																}

															}
, 															{
																"box" : 																{
																	"fontname" : "Helvetica",
																	"fontsize" : 10.0,
																	"frgb" : 0.0,
																	"id" : "obj-7",
																	"maxclass" : "comment",
																	"numinlets" : 1,
																	"numoutlets" : 0,
																	"patching_rect" : [ 101.0, 118.0, 22.0, 16.0 ],
																	"presentation" : 1,
																	"presentation_rect" : [ -1.0, 29.0, 22.0, 16.0 ],
																	"text" : "log"
																}

															}
, 															{
																"box" : 																{
																	"fontname" : "Helvetica",
																	"fontsize" : 10.0,
																	"frgb" : 0.0,
																	"id" : "obj-5",
																	"maxclass" : "comment",
																	"numinlets" : 1,
																	"numoutlets" : 0,
																	"patching_rect" : [ 126.0, 86.0, 24.0, 16.0 ],
																	"presentation" : 1,
																	"presentation_rect" : [ 24.0, -3.0, 24.0, 16.0 ],
																	"text" : "lin"
																}

															}
, 															{
																"box" : 																{
																	"fontname" : "Helvetica",
																	"fontsize" : 10.0,
																	"frgb" : 0.0,
																	"id" : "obj-3",
																	"maxclass" : "comment",
																	"numinlets" : 1,
																	"numoutlets" : 0,
																	"patching_rect" : [ 147.0, 118.0, 26.0, 16.0 ],
																	"presentation" : 1,
																	"presentation_rect" : [ 45.0, 29.0, 26.0, 16.0 ],
																	"text" : "exp"
																}

															}
, 															{
																"box" : 																{
																	"id" : "obj-1",
																	"maxclass" : "live.dial",
																	"numinlets" : 1,
																	"numoutlets" : 2,
																	"outlettype" : [ "", "float" ],
																	"parameter_enable" : 1,
																	"patching_rect" : [ 118.0, 101.0, 34.0, 27.0 ],
																	"presentation" : 1,
																	"presentation_rect" : [ 16.0, 12.0, 34.0, 27.0 ],
																	"saved_attribute_attributes" : 																	{
																		"valueof" : 																		{
																			"parameter_mmin" : -1.0,
																			"parameter_initial" : [ 0 ],
																			"parameter_type" : 0,
																			"parameter_shortname" : "live.dial",
																			"parameter_longname" : "live.dial[1]",
																			"parameter_unitstyle" : 1,
																			"parameter_mmax" : 1.0
																		}

																	}
,
																	"showname" : 0,
																	"shownumber" : 0,
																	"varname" : "live.dial"
																}

															}
 ],
														"lines" : [ 															{
																"patchline" : 																{
																	"destination" : [ "obj-8", 0 ],
																	"disabled" : 0,
																	"hidden" : 0,
																	"source" : [ "obj-1", 0 ]
																}

															}
, 															{
																"patchline" : 																{
																	"destination" : [ "obj-1", 0 ],
																	"disabled" : 0,
																	"hidden" : 0,
																	"source" : [ "obj-9", 0 ]
																}

															}
 ]
													}
,
													"patching_rect" : [ 244.0, 193.0, 72.0, 46.0 ],
													"presentation" : 1,
													"presentation_rect" : [ 4.5, 83.0, 72.0, 46.0 ]
												}

											}
, 											{
												"box" : 												{
													"fontname" : "Helvetica",
													"fontsize" : 12.0,
													"frgb" : 0.0,
													"id" : "obj-5",
													"maxclass" : "comment",
													"numinlets" : 1,
													"numoutlets" : 0,
													"patching_rect" : [ 288.5, 159.0, 95.0, 18.0 ],
													"presentation" : 1,
													"presentation_linecount" : 2,
													"presentation_rect" : [ 74.0, 57.0, 70.0, 30.0 ],
													"text" : "attack time (ms)"
												}

											}
, 											{
												"box" : 												{
													"fontname" : "Helvetica",
													"fontsize" : 12.0,
													"id" : "obj-6",
													"maxclass" : "flonum",
													"minimum" : 0.0,
													"numinlets" : 1,
													"numoutlets" : 2,
													"outlettype" : [ "float", "bang" ],
													"parameter_enable" : 0,
													"patching_rect" : [ 230.0, 159.0, 50.0, 18.0 ],
													"presentation" : 1,
													"presentation_rect" : [ 15.5, 57.0, 50.0, 18.0 ]
												}

											}
, 											{
												"box" : 												{
													"fontname" : "Helvetica",
													"fontsize" : 12.0,
													"id" : "obj-19",
													"linecount" : 2,
													"maxclass" : "message",
													"numinlets" : 2,
													"numoutlets" : 1,
													"outlettype" : [ "" ],
													"patching_rect" : [ 126.5, 350.0, 111.0, 28.0 ],
													"text" : "0, 0.5 2. 0. 0. 9.2 0."
												}

											}
, 											{
												"box" : 												{
													"fontname" : "Helvetica",
													"fontsize" : 12.0,
													"id" : "obj-15",
													"maxclass" : "newobj",
													"numinlets" : 3,
													"numoutlets" : 2,
													"outlettype" : [ "signal", "bang" ],
													"patching_rect" : [ 126.5, 388.0, 47.0, 18.0 ],
													"text" : "curve~"
												}

											}
, 											{
												"box" : 												{
													"comment" : "",
													"id" : "obj-27",
													"maxclass" : "inlet",
													"numinlets" : 0,
													"numoutlets" : 1,
													"outlettype" : [ "bang" ],
													"patching_rect" : [ 18.5, 37.0, 25.0, 25.0 ]
												}

											}
, 											{
												"box" : 												{
													"comment" : "",
													"id" : "obj-29",
													"maxclass" : "outlet",
													"numinlets" : 1,
													"numoutlets" : 0,
													"patching_rect" : [ 126.5, 466.0, 25.0, 25.0 ]
												}

											}
 ],
										"lines" : [ 											{
												"patchline" : 												{
													"destination" : [ "obj-12", 0 ],
													"disabled" : 0,
													"hidden" : 0,
													"source" : [ "obj-1", 0 ]
												}

											}
, 											{
												"patchline" : 												{
													"destination" : [ "obj-18", 4 ],
													"disabled" : 0,
													"hidden" : 0,
													"source" : [ "obj-10", 0 ]
												}

											}
, 											{
												"patchline" : 												{
													"destination" : [ "obj-10", 0 ],
													"disabled" : 0,
													"hidden" : 0,
													"source" : [ "obj-11", 0 ]
												}

											}
, 											{
												"patchline" : 												{
													"destination" : [ "obj-18", 0 ],
													"disabled" : 0,
													"hidden" : 0,
													"source" : [ "obj-12", 0 ]
												}

											}
, 											{
												"patchline" : 												{
													"destination" : [ "obj-29", 0 ],
													"disabled" : 0,
													"hidden" : 0,
													"source" : [ "obj-15", 0 ]
												}

											}
, 											{
												"patchline" : 												{
													"destination" : [ "obj-20", 0 ],
													"disabled" : 0,
													"hidden" : 0,
													"source" : [ "obj-17", 0 ]
												}

											}
, 											{
												"patchline" : 												{
													"destination" : [ "obj-17", 0 ],
													"disabled" : 0,
													"hidden" : 0,
													"source" : [ "obj-18", 0 ]
												}

											}
, 											{
												"patchline" : 												{
													"destination" : [ "obj-15", 0 ],
													"disabled" : 0,
													"hidden" : 0,
													"source" : [ "obj-19", 0 ]
												}

											}
, 											{
												"patchline" : 												{
													"destination" : [ "obj-6", 0 ],
													"disabled" : 0,
													"hidden" : 0,
													"source" : [ "obj-2", 0 ]
												}

											}
, 											{
												"patchline" : 												{
													"destination" : [ "obj-19", 1 ],
													"disabled" : 0,
													"hidden" : 0,
													"source" : [ "obj-20", 0 ]
												}

											}
, 											{
												"patchline" : 												{
													"destination" : [ "obj-19", 0 ],
													"disabled" : 0,
													"hidden" : 0,
													"source" : [ "obj-27", 0 ]
												}

											}
, 											{
												"patchline" : 												{
													"destination" : [ "obj-18", 2 ],
													"disabled" : 0,
													"hidden" : 0,
													"source" : [ "obj-4", 0 ]
												}

											}
, 											{
												"patchline" : 												{
													"destination" : [ "obj-18", 1 ],
													"disabled" : 0,
													"hidden" : 0,
													"source" : [ "obj-6", 0 ]
												}

											}
, 											{
												"patchline" : 												{
													"destination" : [ "obj-18", 5 ],
													"disabled" : 0,
													"hidden" : 0,
													"source" : [ "obj-8", 0 ]
												}

											}
 ]
									}
,
									"patching_rect" : [ 110.0, 318.0, 311.5, 115.0 ],
									"presentation" : 1,
									"presentation_rect" : [ 3.75, 29.0, 310.5, 138.0 ]
								}

							}
, 							{
								"box" : 								{
									"comment" : "Bang In",
									"id" : "obj-32",
									"maxclass" : "inlet",
									"numinlets" : 0,
									"numoutlets" : 1,
									"outlettype" : [ "" ],
									"patching_rect" : [ 110.0, 177.0, 25.0, 25.0 ]
								}

							}
, 							{
								"box" : 								{
									"fontface" : 1,
									"fontname" : "Helvetica",
									"fontsize" : 12.0,
									"frgb" : 0.0,
									"id" : "obj-26",
									"maxclass" : "comment",
									"numinlets" : 1,
									"numoutlets" : 0,
									"patching_rect" : [ 20.0, 7.0, 111.0, 18.0 ],
									"presentation" : 1,
									"presentation_rect" : [ 3.75, 5.0, 109.0, 18.0 ],
									"text" : "input grainer"
								}

							}
, 							{
								"box" : 								{
									"comment" : "Grain Out",
									"id" : "obj-2",
									"maxclass" : "outlet",
									"numinlets" : 1,
									"numoutlets" : 0,
									"patching_rect" : [ 38.5, 581.0, 25.0, 25.0 ]
								}

							}
, 							{
								"box" : 								{
									"id" : "obj-98",
									"maxclass" : "button",
									"numinlets" : 1,
									"numoutlets" : 1,
									"outlettype" : [ "bang" ],
									"patching_rect" : [ 110.0, 217.0, 20.0, 20.0 ]
								}

							}
, 							{
								"box" : 								{
									"fontname" : "Helvetica",
									"fontsize" : 12.0,
									"id" : "obj-16",
									"maxclass" : "newobj",
									"numinlets" : 2,
									"numoutlets" : 1,
									"outlettype" : [ "signal" ],
									"patching_rect" : [ 38.5, 476.0, 32.5, 18.0 ],
									"text" : "*~"
								}

							}
 ],
						"lines" : [ 							{
								"patchline" : 								{
									"destination" : [ "obj-16", 0 ],
									"disabled" : 0,
									"hidden" : 0,
									"source" : [ "obj-1", 0 ]
								}

							}
, 							{
								"patchline" : 								{
									"destination" : [ "obj-2", 0 ],
									"disabled" : 0,
									"hidden" : 0,
									"source" : [ "obj-16", 0 ]
								}

							}
, 							{
								"patchline" : 								{
									"destination" : [ "obj-98", 0 ],
									"disabled" : 0,
									"hidden" : 0,
									"source" : [ "obj-32", 0 ]
								}

							}
, 							{
								"patchline" : 								{
									"destination" : [ "obj-16", 1 ],
									"disabled" : 0,
									"hidden" : 0,
									"source" : [ "obj-36", 0 ]
								}

							}
, 							{
								"patchline" : 								{
									"destination" : [ "obj-36", 1 ],
									"disabled" : 0,
									"hidden" : 0,
									"source" : [ "obj-38", 0 ]
								}

							}
, 							{
								"patchline" : 								{
									"destination" : [ "obj-36", 2 ],
									"disabled" : 0,
									"hidden" : 0,
									"source" : [ "obj-39", 0 ]
								}

							}
, 							{
								"patchline" : 								{
									"destination" : [ "obj-36", 3 ],
									"disabled" : 0,
									"hidden" : 0,
									"source" : [ "obj-40", 0 ]
								}

							}
, 							{
								"patchline" : 								{
									"destination" : [ "obj-36", 0 ],
									"disabled" : 0,
									"hidden" : 0,
									"source" : [ "obj-98", 0 ]
								}

							}
 ]
					}
,
					"patching_rect" : [ 3.0, 3.0, 324.0, 176.0 ]
				}

			}
 ],
		"lines" : [  ],
		"parameters" : 		{
			"obj-99::obj-36::obj-8::obj-1" : [ "live.dial[2]", "live.dial", 0 ],
			"obj-99::obj-36::obj-4::obj-1" : [ "live.dial[1]", "live.dial", 0 ]
		}
,
		"dependency_cache" : [ 			{
				"name" : "glissongen.maxpat",
				"bootpath" : "/Users/Tricky/Dropbox/Max Files/Max 6/Euromax Updates",
				"patcherrelativepath" : "",
				"type" : "JSON",
				"implicit" : 1
			}
, 			{
				"name" : "curveselectknob.maxpat",
				"bootpath" : "/Users/Tricky/Dropbox/Max Files/Max 6/Euromax Updates",
				"patcherrelativepath" : "",
				"type" : "JSON",
				"implicit" : 1
			}
 ]
	}

}
