{
	"patcher" : 	{
		"fileversion" : 1,
		"appversion" : 		{
			"major" : 6,
			"minor" : 1,
			"revision" : 0,
			"architecture" : "x86"
		}
,
		"rect" : [ 25.0, 69.0, 640.0, 480.0 ],
		"bglocked" : 0,
		"openinpresentation" : 0,
		"default_fontsize" : 12.0,
		"default_fontface" : 0,
		"default_fontname" : "Helvetica",
		"gridonopen" : 0,
		"gridsize" : [ 15.0, 15.0 ],
		"gridsnaponopen" : 0,
		"statusbarvisible" : 1,
		"toolbarvisible" : 1,
		"boxanimatetime" : 200,
		"imprint" : 0,
		"enablehscroll" : 1,
		"enablevscroll" : 1,
		"devicewidth" : 0.0,
		"description" : "",
		"digest" : "",
		"tags" : "",
		"boxes" : [ 			{
				"box" : 				{
					"border" : 1,
					"embed" : 1,
					"id" : "obj-2",
					"maxclass" : "bpatcher",
					"name" : "bipolarmixercontrol.maxpat",
					"numinlets" : 4,
					"numoutlets" : 1,
					"outlettype" : [ "int" ],
					"patcher" : 					{
						"fileversion" : 1,
						"appversion" : 						{
							"major" : 6,
							"minor" : 1,
							"revision" : 0,
							"architecture" : "x86"
						}
,
						"rect" : [ 26.0, 71.0, 419.0, 108.0 ],
						"bgcolor" : [ 1.0, 1.0, 1.0, 0.0 ],
						"bglocked" : 0,
						"openinpresentation" : 1,
						"default_fontsize" : 12.0,
						"default_fontface" : 0,
						"default_fontname" : "Helvetica",
						"gridonopen" : 0,
						"gridsize" : [ 15.0, 15.0 ],
						"gridsnaponopen" : 0,
						"statusbarvisible" : 1,
						"toolbarvisible" : 1,
						"boxanimatetime" : 200,
						"imprint" : 0,
						"enablehscroll" : 1,
						"enablevscroll" : 1,
						"devicewidth" : 0.0,
						"description" : "",
						"digest" : "",
						"tags" : "",
						"boxes" : [ 							{
								"box" : 								{
									"fontface" : 1,
									"fontname" : "Helvetica",
									"fontsize" : 12.0,
									"frgb" : 0.0,
									"id" : "obj-19",
									"maxclass" : "comment",
									"numinlets" : 1,
									"numoutlets" : 0,
									"patching_rect" : [ 263.0, 231.0, 165.0, 18.0 ],
									"presentation" : 1,
									"presentation_rect" : [ 3.0, -1.0, 165.0, 18.0 ],
									"text" : "bipolar control mixer"
								}

							}
, 							{
								"box" : 								{
									"comment" : "Control Mix Out",
									"id" : "obj-17",
									"maxclass" : "outlet",
									"numinlets" : 1,
									"numoutlets" : 0,
									"patching_rect" : [ 149.5, 334.0, 25.0, 25.0 ]
								}

							}
, 							{
								"box" : 								{
									"id" : "obj-16",
									"maxclass" : "button",
									"numinlets" : 1,
									"numoutlets" : 1,
									"outlettype" : [ "bang" ],
									"patching_rect" : [ 155.75, 258.0, 20.0, 20.0 ]
								}

							}
, 							{
								"box" : 								{
									"fontname" : "Helvetica",
									"fontsize" : 12.0,
									"id" : "obj-14",
									"maxclass" : "newobj",
									"numinlets" : 2,
									"numoutlets" : 1,
									"outlettype" : [ "int" ],
									"patching_rect" : [ 149.5, 294.0, 32.5, 18.0 ],
									"text" : "+"
								}

							}
, 							{
								"box" : 								{
									"id" : "obj-13",
									"maxclass" : "button",
									"numinlets" : 1,
									"numoutlets" : 1,
									"outlettype" : [ "bang" ],
									"patching_rect" : [ 222.5, 172.0, 20.0, 20.0 ]
								}

							}
, 							{
								"box" : 								{
									"fontname" : "Helvetica",
									"fontsize" : 12.0,
									"id" : "obj-12",
									"maxclass" : "newobj",
									"numinlets" : 2,
									"numoutlets" : 1,
									"outlettype" : [ "int" ],
									"patching_rect" : [ 210.0, 214.0, 32.5, 18.0 ],
									"text" : "+"
								}

							}
, 							{
								"box" : 								{
									"id" : "obj-11",
									"maxclass" : "button",
									"numinlets" : 1,
									"numoutlets" : 1,
									"outlettype" : [ "bang" ],
									"patching_rect" : [ 81.0, 172.0, 20.0, 20.0 ]
								}

							}
, 							{
								"box" : 								{
									"fontname" : "Helvetica",
									"fontsize" : 12.0,
									"id" : "obj-9",
									"maxclass" : "newobj",
									"numinlets" : 2,
									"numoutlets" : 1,
									"outlettype" : [ "int" ],
									"patching_rect" : [ 92.5, 214.0, 32.5, 18.0 ],
									"text" : "+"
								}

							}
, 							{
								"box" : 								{
									"comment" : "Control In 4",
									"id" : "obj-8",
									"maxclass" : "inlet",
									"numinlets" : 0,
									"numoutlets" : 1,
									"outlettype" : [ "" ],
									"patching_rect" : [ 314.0, 17.0, 25.0, 25.0 ]
								}

							}
, 							{
								"box" : 								{
									"comment" : "Control In 3",
									"id" : "obj-7",
									"maxclass" : "inlet",
									"numinlets" : 0,
									"numoutlets" : 1,
									"outlettype" : [ "" ],
									"patching_rect" : [ 210.0, 17.0, 25.0, 25.0 ]
								}

							}
, 							{
								"box" : 								{
									"comment" : "Control In 2",
									"id" : "obj-6",
									"maxclass" : "inlet",
									"numinlets" : 0,
									"numoutlets" : 1,
									"outlettype" : [ "" ],
									"patching_rect" : [ 106.0, 17.0, 25.0, 25.0 ]
								}

							}
, 							{
								"box" : 								{
									"comment" : "Control In 1",
									"id" : "obj-5",
									"maxclass" : "inlet",
									"numinlets" : 0,
									"numoutlets" : 1,
									"outlettype" : [ "" ],
									"patching_rect" : [ 2.0, 17.0, 25.0, 25.0 ]
								}

							}
, 							{
								"box" : 								{
									"embed" : 1,
									"id" : "obj-4",
									"maxclass" : "bpatcher",
									"name" : "bipolarcontrol.maxpat",
									"numinlets" : 1,
									"numoutlets" : 1,
									"outlettype" : [ "int" ],
									"patcher" : 									{
										"fileversion" : 1,
										"appversion" : 										{
											"major" : 6,
											"minor" : 1,
											"revision" : 0,
											"architecture" : "x86"
										}
,
										"rect" : [ 341.0, 93.0, 104.0, 89.0 ],
										"bgcolor" : [ 1.0, 1.0, 1.0, 0.0 ],
										"bglocked" : 0,
										"openinpresentation" : 1,
										"default_fontsize" : 12.0,
										"default_fontface" : 0,
										"default_fontname" : "Helvetica",
										"gridonopen" : 0,
										"gridsize" : [ 15.0, 15.0 ],
										"gridsnaponopen" : 0,
										"statusbarvisible" : 1,
										"toolbarvisible" : 1,
										"boxanimatetime" : 200,
										"imprint" : 0,
										"enablehscroll" : 1,
										"enablevscroll" : 1,
										"devicewidth" : 0.0,
										"description" : "",
										"digest" : "",
										"tags" : "",
										"boxes" : [ 											{
												"box" : 												{
													"comment" : "Attenuated Signal",
													"id" : "obj-66",
													"maxclass" : "outlet",
													"numinlets" : 1,
													"numoutlets" : 0,
													"patching_rect" : [ 10.0, 125.0, 25.0, 25.0 ]
												}

											}
, 											{
												"box" : 												{
													"comment" : "Control to be Attenuated",
													"id" : "obj-65",
													"maxclass" : "inlet",
													"numinlets" : 0,
													"numoutlets" : 1,
													"outlettype" : [ "" ],
													"patching_rect" : [ 10.0, 9.0, 25.0, 25.0 ]
												}

											}
, 											{
												"box" : 												{
													"fontname" : "Helvetica",
													"fontsize" : 12.0,
													"id" : "obj-64",
													"maxclass" : "newobj",
													"numinlets" : 2,
													"numoutlets" : 1,
													"outlettype" : [ "int" ],
													"patching_rect" : [ 10.0, 98.5, 32.5, 18.0 ],
													"text" : "*"
												}

											}
, 											{
												"box" : 												{
													"appearance" : 2,
													"id" : "obj-63",
													"maxclass" : "live.dial",
													"numinlets" : 1,
													"numoutlets" : 2,
													"outlettype" : [ "", "float" ],
													"parameter_enable" : 1,
													"patching_rect" : [ 44.0, 9.0, 97.0, 80.0 ],
													"presentation" : 1,
													"presentation_rect" : [ 2.0, 2.0, 97.0, 80.0 ],
													"saved_attribute_attributes" : 													{
														"valueof" : 														{
															"parameter_shortname" : "Bipolar Attenuator (Control)",
															"parameter_longname" : "Bipolar Attenuator[3]",
															"parameter_unitstyle" : 1,
															"parameter_mmax" : 1.0,
															"parameter_mmin" : -1.0,
															"parameter_type" : 0
														}

													}
,
													"varname" : "live.dial"
												}

											}
 ],
										"lines" : [ 											{
												"patchline" : 												{
													"destination" : [ "obj-64", 1 ],
													"disabled" : 0,
													"hidden" : 0,
													"source" : [ "obj-63", 0 ]
												}

											}
, 											{
												"patchline" : 												{
													"destination" : [ "obj-66", 0 ],
													"disabled" : 0,
													"hidden" : 0,
													"source" : [ "obj-64", 0 ]
												}

											}
, 											{
												"patchline" : 												{
													"destination" : [ "obj-64", 0 ],
													"disabled" : 0,
													"hidden" : 0,
													"source" : [ "obj-65", 0 ]
												}

											}
 ]
									}
,
									"patching_rect" : [ 314.0, 68.0, 104.0, 89.0 ],
									"presentation" : 1,
									"presentation_rect" : [ 315.0, 22.0, 104.0, 89.0 ]
								}

							}
, 							{
								"box" : 								{
									"embed" : 1,
									"id" : "obj-3",
									"maxclass" : "bpatcher",
									"name" : "bipolarcontrol.maxpat",
									"numinlets" : 1,
									"numoutlets" : 1,
									"outlettype" : [ "int" ],
									"patcher" : 									{
										"fileversion" : 1,
										"appversion" : 										{
											"major" : 6,
											"minor" : 1,
											"revision" : 0,
											"architecture" : "x86"
										}
,
										"rect" : [ 237.0, 93.0, 104.0, 89.0 ],
										"bgcolor" : [ 1.0, 1.0, 1.0, 0.0 ],
										"bglocked" : 0,
										"openinpresentation" : 1,
										"default_fontsize" : 12.0,
										"default_fontface" : 0,
										"default_fontname" : "Helvetica",
										"gridonopen" : 0,
										"gridsize" : [ 15.0, 15.0 ],
										"gridsnaponopen" : 0,
										"statusbarvisible" : 1,
										"toolbarvisible" : 1,
										"boxanimatetime" : 200,
										"imprint" : 0,
										"enablehscroll" : 1,
										"enablevscroll" : 1,
										"devicewidth" : 0.0,
										"description" : "",
										"digest" : "",
										"tags" : "",
										"boxes" : [ 											{
												"box" : 												{
													"comment" : "Attenuated Signal",
													"id" : "obj-66",
													"maxclass" : "outlet",
													"numinlets" : 1,
													"numoutlets" : 0,
													"patching_rect" : [ 10.0, 125.0, 25.0, 25.0 ]
												}

											}
, 											{
												"box" : 												{
													"comment" : "Control to be Attenuated",
													"id" : "obj-65",
													"maxclass" : "inlet",
													"numinlets" : 0,
													"numoutlets" : 1,
													"outlettype" : [ "" ],
													"patching_rect" : [ 10.0, 9.0, 25.0, 25.0 ]
												}

											}
, 											{
												"box" : 												{
													"fontname" : "Helvetica",
													"fontsize" : 12.0,
													"id" : "obj-64",
													"maxclass" : "newobj",
													"numinlets" : 2,
													"numoutlets" : 1,
													"outlettype" : [ "int" ],
													"patching_rect" : [ 10.0, 98.5, 32.5, 18.0 ],
													"text" : "*"
												}

											}
, 											{
												"box" : 												{
													"appearance" : 2,
													"id" : "obj-63",
													"maxclass" : "live.dial",
													"numinlets" : 1,
													"numoutlets" : 2,
													"outlettype" : [ "", "float" ],
													"parameter_enable" : 1,
													"patching_rect" : [ 44.0, 9.0, 97.0, 80.0 ],
													"presentation" : 1,
													"presentation_rect" : [ 2.0, 2.0, 97.0, 80.0 ],
													"saved_attribute_attributes" : 													{
														"valueof" : 														{
															"parameter_shortname" : "Bipolar Attenuator (Control)",
															"parameter_longname" : "Bipolar Attenuator[2]",
															"parameter_unitstyle" : 1,
															"parameter_mmax" : 1.0,
															"parameter_mmin" : -1.0,
															"parameter_type" : 0
														}

													}
,
													"varname" : "live.dial"
												}

											}
 ],
										"lines" : [ 											{
												"patchline" : 												{
													"destination" : [ "obj-64", 1 ],
													"disabled" : 0,
													"hidden" : 0,
													"source" : [ "obj-63", 0 ]
												}

											}
, 											{
												"patchline" : 												{
													"destination" : [ "obj-66", 0 ],
													"disabled" : 0,
													"hidden" : 0,
													"source" : [ "obj-64", 0 ]
												}

											}
, 											{
												"patchline" : 												{
													"destination" : [ "obj-64", 0 ],
													"disabled" : 0,
													"hidden" : 0,
													"source" : [ "obj-65", 0 ]
												}

											}
 ]
									}
,
									"patching_rect" : [ 210.0, 68.0, 104.0, 89.0 ],
									"presentation" : 1,
									"presentation_rect" : [ 211.0, 22.0, 104.0, 89.0 ]
								}

							}
, 							{
								"box" : 								{
									"embed" : 1,
									"id" : "obj-2",
									"maxclass" : "bpatcher",
									"name" : "bipolarcontrol.maxpat",
									"numinlets" : 1,
									"numoutlets" : 1,
									"outlettype" : [ "int" ],
									"patcher" : 									{
										"fileversion" : 1,
										"appversion" : 										{
											"major" : 6,
											"minor" : 1,
											"revision" : 0,
											"architecture" : "x86"
										}
,
										"rect" : [ 133.0, 93.0, 104.0, 89.0 ],
										"bgcolor" : [ 1.0, 1.0, 1.0, 0.0 ],
										"bglocked" : 0,
										"openinpresentation" : 1,
										"default_fontsize" : 12.0,
										"default_fontface" : 0,
										"default_fontname" : "Helvetica",
										"gridonopen" : 0,
										"gridsize" : [ 15.0, 15.0 ],
										"gridsnaponopen" : 0,
										"statusbarvisible" : 1,
										"toolbarvisible" : 1,
										"boxanimatetime" : 200,
										"imprint" : 0,
										"enablehscroll" : 1,
										"enablevscroll" : 1,
										"devicewidth" : 0.0,
										"description" : "",
										"digest" : "",
										"tags" : "",
										"boxes" : [ 											{
												"box" : 												{
													"comment" : "Attenuated Signal",
													"id" : "obj-66",
													"maxclass" : "outlet",
													"numinlets" : 1,
													"numoutlets" : 0,
													"patching_rect" : [ 10.0, 125.0, 25.0, 25.0 ]
												}

											}
, 											{
												"box" : 												{
													"comment" : "Control to be Attenuated",
													"id" : "obj-65",
													"maxclass" : "inlet",
													"numinlets" : 0,
													"numoutlets" : 1,
													"outlettype" : [ "" ],
													"patching_rect" : [ 10.0, 9.0, 25.0, 25.0 ]
												}

											}
, 											{
												"box" : 												{
													"fontname" : "Helvetica",
													"fontsize" : 12.0,
													"id" : "obj-64",
													"maxclass" : "newobj",
													"numinlets" : 2,
													"numoutlets" : 1,
													"outlettype" : [ "int" ],
													"patching_rect" : [ 10.0, 98.5, 32.5, 18.0 ],
													"text" : "*"
												}

											}
, 											{
												"box" : 												{
													"appearance" : 2,
													"id" : "obj-63",
													"maxclass" : "live.dial",
													"numinlets" : 1,
													"numoutlets" : 2,
													"outlettype" : [ "", "float" ],
													"parameter_enable" : 1,
													"patching_rect" : [ 44.0, 9.0, 97.0, 80.0 ],
													"presentation" : 1,
													"presentation_rect" : [ 2.0, 2.0, 97.0, 80.0 ],
													"saved_attribute_attributes" : 													{
														"valueof" : 														{
															"parameter_shortname" : "Bipolar Attenuator (Control)",
															"parameter_longname" : "Bipolar Attenuator[1]",
															"parameter_unitstyle" : 1,
															"parameter_mmax" : 1.0,
															"parameter_mmin" : -1.0,
															"parameter_type" : 0
														}

													}
,
													"varname" : "live.dial"
												}

											}
 ],
										"lines" : [ 											{
												"patchline" : 												{
													"destination" : [ "obj-64", 1 ],
													"disabled" : 0,
													"hidden" : 0,
													"source" : [ "obj-63", 0 ]
												}

											}
, 											{
												"patchline" : 												{
													"destination" : [ "obj-66", 0 ],
													"disabled" : 0,
													"hidden" : 0,
													"source" : [ "obj-64", 0 ]
												}

											}
, 											{
												"patchline" : 												{
													"destination" : [ "obj-64", 0 ],
													"disabled" : 0,
													"hidden" : 0,
													"source" : [ "obj-65", 0 ]
												}

											}
 ]
									}
,
									"patching_rect" : [ 106.0, 68.0, 104.0, 89.0 ],
									"presentation" : 1,
									"presentation_rect" : [ 107.0, 22.0, 104.0, 89.0 ]
								}

							}
, 							{
								"box" : 								{
									"embed" : 1,
									"id" : "obj-1",
									"maxclass" : "bpatcher",
									"name" : "bipolarcontrol.maxpat",
									"numinlets" : 1,
									"numoutlets" : 1,
									"outlettype" : [ "int" ],
									"patcher" : 									{
										"fileversion" : 1,
										"appversion" : 										{
											"major" : 6,
											"minor" : 1,
											"revision" : 0,
											"architecture" : "x86"
										}
,
										"rect" : [ 29.0, 93.0, 104.0, 89.0 ],
										"bgcolor" : [ 1.0, 1.0, 1.0, 0.0 ],
										"bglocked" : 0,
										"openinpresentation" : 1,
										"default_fontsize" : 12.0,
										"default_fontface" : 0,
										"default_fontname" : "Helvetica",
										"gridonopen" : 0,
										"gridsize" : [ 15.0, 15.0 ],
										"gridsnaponopen" : 0,
										"statusbarvisible" : 1,
										"toolbarvisible" : 1,
										"boxanimatetime" : 200,
										"imprint" : 0,
										"enablehscroll" : 1,
										"enablevscroll" : 1,
										"devicewidth" : 0.0,
										"description" : "",
										"digest" : "",
										"tags" : "",
										"boxes" : [ 											{
												"box" : 												{
													"comment" : "Attenuated Signal",
													"id" : "obj-66",
													"maxclass" : "outlet",
													"numinlets" : 1,
													"numoutlets" : 0,
													"patching_rect" : [ 10.0, 125.0, 25.0, 25.0 ]
												}

											}
, 											{
												"box" : 												{
													"comment" : "Control to be Attenuated",
													"id" : "obj-65",
													"maxclass" : "inlet",
													"numinlets" : 0,
													"numoutlets" : 1,
													"outlettype" : [ "" ],
													"patching_rect" : [ 10.0, 9.0, 25.0, 25.0 ]
												}

											}
, 											{
												"box" : 												{
													"fontname" : "Helvetica",
													"fontsize" : 12.0,
													"id" : "obj-64",
													"maxclass" : "newobj",
													"numinlets" : 2,
													"numoutlets" : 1,
													"outlettype" : [ "int" ],
													"patching_rect" : [ 10.0, 98.5, 32.5, 18.0 ],
													"text" : "*"
												}

											}
, 											{
												"box" : 												{
													"appearance" : 2,
													"id" : "obj-63",
													"maxclass" : "live.dial",
													"numinlets" : 1,
													"numoutlets" : 2,
													"outlettype" : [ "", "float" ],
													"parameter_enable" : 1,
													"patching_rect" : [ 44.0, 9.0, 97.0, 80.0 ],
													"presentation" : 1,
													"presentation_rect" : [ 2.0, 2.0, 97.0, 80.0 ],
													"saved_attribute_attributes" : 													{
														"valueof" : 														{
															"parameter_shortname" : "Bipolar Attenuator (Control)",
															"parameter_longname" : "Bipolar Attenuator",
															"parameter_unitstyle" : 1,
															"parameter_mmax" : 1.0,
															"parameter_mmin" : -1.0,
															"parameter_type" : 0
														}

													}
,
													"varname" : "live.dial"
												}

											}
 ],
										"lines" : [ 											{
												"patchline" : 												{
													"destination" : [ "obj-64", 1 ],
													"disabled" : 0,
													"hidden" : 0,
													"source" : [ "obj-63", 0 ]
												}

											}
, 											{
												"patchline" : 												{
													"destination" : [ "obj-66", 0 ],
													"disabled" : 0,
													"hidden" : 0,
													"source" : [ "obj-64", 0 ]
												}

											}
, 											{
												"patchline" : 												{
													"destination" : [ "obj-64", 0 ],
													"disabled" : 0,
													"hidden" : 0,
													"source" : [ "obj-65", 0 ]
												}

											}
 ]
									}
,
									"patching_rect" : [ 2.0, 68.0, 104.0, 89.0 ],
									"presentation" : 1,
									"presentation_rect" : [ 3.0, 22.0, 104.0, 89.0 ]
								}

							}
 ],
						"lines" : [ 							{
								"patchline" : 								{
									"destination" : [ "obj-9", 0 ],
									"disabled" : 0,
									"hidden" : 0,
									"source" : [ "obj-1", 0 ]
								}

							}
, 							{
								"patchline" : 								{
									"destination" : [ "obj-9", 0 ],
									"disabled" : 0,
									"hidden" : 0,
									"source" : [ "obj-11", 0 ]
								}

							}
, 							{
								"patchline" : 								{
									"destination" : [ "obj-14", 1 ],
									"disabled" : 0,
									"hidden" : 0,
									"source" : [ "obj-12", 0 ]
								}

							}
, 							{
								"patchline" : 								{
									"destination" : [ "obj-16", 0 ],
									"disabled" : 0,
									"hidden" : 0,
									"source" : [ "obj-12", 0 ]
								}

							}
, 							{
								"patchline" : 								{
									"destination" : [ "obj-12", 0 ],
									"disabled" : 0,
									"hidden" : 0,
									"source" : [ "obj-13", 0 ]
								}

							}
, 							{
								"patchline" : 								{
									"destination" : [ "obj-17", 0 ],
									"disabled" : 0,
									"hidden" : 0,
									"source" : [ "obj-14", 0 ]
								}

							}
, 							{
								"patchline" : 								{
									"destination" : [ "obj-14", 0 ],
									"disabled" : 0,
									"hidden" : 0,
									"source" : [ "obj-16", 0 ]
								}

							}
, 							{
								"patchline" : 								{
									"destination" : [ "obj-11", 0 ],
									"disabled" : 0,
									"hidden" : 0,
									"source" : [ "obj-2", 0 ]
								}

							}
, 							{
								"patchline" : 								{
									"destination" : [ "obj-9", 1 ],
									"disabled" : 0,
									"hidden" : 0,
									"source" : [ "obj-2", 0 ]
								}

							}
, 							{
								"patchline" : 								{
									"destination" : [ "obj-12", 0 ],
									"disabled" : 0,
									"hidden" : 0,
									"source" : [ "obj-3", 0 ]
								}

							}
, 							{
								"patchline" : 								{
									"destination" : [ "obj-12", 1 ],
									"disabled" : 0,
									"hidden" : 0,
									"source" : [ "obj-4", 0 ]
								}

							}
, 							{
								"patchline" : 								{
									"destination" : [ "obj-13", 0 ],
									"disabled" : 0,
									"hidden" : 0,
									"source" : [ "obj-4", 0 ]
								}

							}
, 							{
								"patchline" : 								{
									"destination" : [ "obj-1", 0 ],
									"disabled" : 0,
									"hidden" : 0,
									"source" : [ "obj-5", 0 ]
								}

							}
, 							{
								"patchline" : 								{
									"destination" : [ "obj-2", 0 ],
									"disabled" : 0,
									"hidden" : 0,
									"source" : [ "obj-6", 0 ]
								}

							}
, 							{
								"patchline" : 								{
									"destination" : [ "obj-3", 0 ],
									"disabled" : 0,
									"hidden" : 0,
									"source" : [ "obj-7", 0 ]
								}

							}
, 							{
								"patchline" : 								{
									"destination" : [ "obj-4", 0 ],
									"disabled" : 0,
									"hidden" : 0,
									"source" : [ "obj-8", 0 ]
								}

							}
, 							{
								"patchline" : 								{
									"destination" : [ "obj-14", 0 ],
									"disabled" : 0,
									"hidden" : 0,
									"source" : [ "obj-9", 0 ]
								}

							}
 ]
					}
,
					"patching_rect" : [ 1.0, 2.0, 419.0, 108.0 ]
				}

			}
 ],
		"lines" : [  ],
		"parameters" : 		{
			"obj-2::obj-4::obj-63" : [ "Bipolar Attenuator[3]", "Bipolar Attenuator (Control)", 0 ],
			"obj-2::obj-3::obj-63" : [ "Bipolar Attenuator[2]", "Bipolar Attenuator (Control)", 0 ],
			"obj-2::obj-2::obj-63" : [ "Bipolar Attenuator[1]", "Bipolar Attenuator (Control)", 0 ],
			"obj-2::obj-1::obj-63" : [ "Bipolar Attenuator", "Bipolar Attenuator (Control)", 0 ]
		}
,
		"dependency_cache" : [ 			{
				"name" : "bipolarmixercontrol.maxpat",
				"bootpath" : "/Users/Tricky/Dropbox/Max Files/Max 6/Euromax Updates",
				"patcherrelativepath" : "",
				"type" : "JSON",
				"implicit" : 1
			}
, 			{
				"name" : "bipolarcontrol.maxpat",
				"bootpath" : "/Users/Tricky/Dropbox/Max Files/Max 6/Euromax Updates",
				"patcherrelativepath" : "",
				"type" : "JSON",
				"implicit" : 1
			}
 ]
	}

}
