{
	"patcher" : 	{
		"fileversion" : 1,
		"appversion" : 		{
			"major" : 6,
			"minor" : 1,
			"revision" : 0,
			"architecture" : "x86"
		}
,
		"rect" : [ 25.0, 69.0, 640.0, 480.0 ],
		"bglocked" : 0,
		"openinpresentation" : 0,
		"default_fontsize" : 12.0,
		"default_fontface" : 0,
		"default_fontname" : "Helvetica",
		"gridonopen" : 0,
		"gridsize" : [ 15.0, 15.0 ],
		"gridsnaponopen" : 0,
		"statusbarvisible" : 1,
		"toolbarvisible" : 1,
		"boxanimatetime" : 200,
		"imprint" : 0,
		"enablehscroll" : 1,
		"enablevscroll" : 1,
		"devicewidth" : 0.0,
		"description" : "",
		"digest" : "",
		"tags" : "",
		"boxes" : [ 			{
				"box" : 				{
					"border" : 1,
					"embed" : 1,
					"id" : "obj-1",
					"maxclass" : "bpatcher",
					"name" : "bipolarmixeraudio.maxpat",
					"numinlets" : 4,
					"numoutlets" : 1,
					"outlettype" : [ "signal" ],
					"patcher" : 					{
						"fileversion" : 1,
						"appversion" : 						{
							"major" : 6,
							"minor" : 1,
							"revision" : 0,
							"architecture" : "x86"
						}
,
						"rect" : [ 27.0, 71.0, 430.0, 113.0 ],
						"bgcolor" : [ 1.0, 1.0, 1.0, 0.0 ],
						"bglocked" : 0,
						"openinpresentation" : 1,
						"default_fontsize" : 12.0,
						"default_fontface" : 0,
						"default_fontname" : "Helvetica",
						"gridonopen" : 0,
						"gridsize" : [ 15.0, 15.0 ],
						"gridsnaponopen" : 0,
						"statusbarvisible" : 1,
						"toolbarvisible" : 1,
						"boxanimatetime" : 200,
						"imprint" : 0,
						"enablehscroll" : 1,
						"enablevscroll" : 1,
						"devicewidth" : 0.0,
						"description" : "",
						"digest" : "",
						"tags" : "",
						"boxes" : [ 							{
								"box" : 								{
									"fontface" : 1,
									"fontname" : "Helvetica",
									"fontsize" : 12.0,
									"frgb" : 0.0,
									"id" : "obj-17",
									"maxclass" : "comment",
									"numinlets" : 1,
									"numoutlets" : 0,
									"patching_rect" : [ 271.0, 250.0, 163.0, 18.0 ],
									"presentation" : 1,
									"presentation_rect" : [ 3.0, 3.0, 163.0, 18.0 ],
									"text" : "bipolar audio mixer"
								}

							}
, 							{
								"box" : 								{
									"comment" : "Audio In 4",
									"id" : "obj-15",
									"maxclass" : "inlet",
									"numinlets" : 0,
									"numoutlets" : 1,
									"outlettype" : [ "" ],
									"patching_rect" : [ 327.0, 10.0, 25.0, 25.0 ]
								}

							}
, 							{
								"box" : 								{
									"comment" : "Audio In 3",
									"id" : "obj-14",
									"maxclass" : "inlet",
									"numinlets" : 0,
									"numoutlets" : 1,
									"outlettype" : [ "" ],
									"patching_rect" : [ 220.0, 10.0, 25.0, 25.0 ]
								}

							}
, 							{
								"box" : 								{
									"comment" : "Audio In 2",
									"id" : "obj-13",
									"maxclass" : "inlet",
									"numinlets" : 0,
									"numoutlets" : 1,
									"outlettype" : [ "" ],
									"patching_rect" : [ 113.0, 10.0, 25.0, 25.0 ]
								}

							}
, 							{
								"box" : 								{
									"fontname" : "Helvetica",
									"fontsize" : 12.0,
									"id" : "obj-12",
									"maxclass" : "newobj",
									"numinlets" : 2,
									"numoutlets" : 1,
									"outlettype" : [ "signal" ],
									"patching_rect" : [ 154.0, 242.0, 32.5, 18.0 ],
									"text" : "+~"
								}

							}
, 							{
								"box" : 								{
									"fontname" : "Helvetica",
									"fontsize" : 12.0,
									"id" : "obj-11",
									"maxclass" : "newobj",
									"numinlets" : 2,
									"numoutlets" : 1,
									"outlettype" : [ "signal" ],
									"patching_rect" : [ 220.0, 201.0, 32.5, 18.0 ],
									"text" : "+~"
								}

							}
, 							{
								"box" : 								{
									"fontname" : "Helvetica",
									"fontsize" : 12.0,
									"id" : "obj-10",
									"maxclass" : "newobj",
									"numinlets" : 2,
									"numoutlets" : 1,
									"outlettype" : [ "signal" ],
									"patching_rect" : [ 99.5, 201.0, 32.5, 18.0 ],
									"text" : "+~"
								}

							}
, 							{
								"box" : 								{
									"comment" : "Audio Out",
									"id" : "obj-9",
									"maxclass" : "outlet",
									"numinlets" : 1,
									"numoutlets" : 0,
									"patching_rect" : [ 154.0, 273.0, 25.0, 25.0 ]
								}

							}
, 							{
								"box" : 								{
									"comment" : "Audio In 1",
									"id" : "obj-8",
									"maxclass" : "inlet",
									"numinlets" : 0,
									"numoutlets" : 1,
									"outlettype" : [ "" ],
									"patching_rect" : [ 6.0, 10.0, 25.0, 25.0 ]
								}

							}
, 							{
								"box" : 								{
									"embed" : 1,
									"id" : "obj-5",
									"maxclass" : "bpatcher",
									"name" : "bipolaraudio.maxpat",
									"numinlets" : 1,
									"numoutlets" : 1,
									"outlettype" : [ "signal" ],
									"patcher" : 									{
										"fileversion" : 1,
										"appversion" : 										{
											"major" : 6,
											"minor" : 1,
											"revision" : 0,
											"architecture" : "x86"
										}
,
										"rect" : [ 349.0, 92.0, 107.0, 92.0 ],
										"bgcolor" : [ 1.0, 1.0, 1.0, 0.0 ],
										"bglocked" : 0,
										"openinpresentation" : 1,
										"default_fontsize" : 12.0,
										"default_fontface" : 0,
										"default_fontname" : "Helvetica",
										"gridonopen" : 0,
										"gridsize" : [ 15.0, 15.0 ],
										"gridsnaponopen" : 0,
										"statusbarvisible" : 1,
										"toolbarvisible" : 1,
										"boxanimatetime" : 200,
										"imprint" : 0,
										"enablehscroll" : 1,
										"enablevscroll" : 1,
										"devicewidth" : 0.0,
										"description" : "",
										"digest" : "",
										"tags" : "",
										"boxes" : [ 											{
												"box" : 												{
													"comment" : "Attenuated Audio",
													"id" : "obj-67",
													"maxclass" : "outlet",
													"numinlets" : 1,
													"numoutlets" : 0,
													"patching_rect" : [ 15.0, 131.0, 25.0, 25.0 ]
												}

											}
, 											{
												"box" : 												{
													"comment" : "Audio to be Attenuated",
													"id" : "obj-68",
													"maxclass" : "inlet",
													"numinlets" : 0,
													"numoutlets" : 1,
													"outlettype" : [ "" ],
													"patching_rect" : [ 15.0, 15.0, 25.0, 25.0 ]
												}

											}
, 											{
												"box" : 												{
													"fontname" : "Helvetica",
													"fontsize" : 12.0,
													"id" : "obj-69",
													"maxclass" : "newobj",
													"numinlets" : 2,
													"numoutlets" : 1,
													"outlettype" : [ "signal" ],
													"patching_rect" : [ 15.0, 104.5, 32.5, 18.0 ],
													"text" : "*~"
												}

											}
, 											{
												"box" : 												{
													"appearance" : 2,
													"id" : "obj-70",
													"maxclass" : "live.dial",
													"numinlets" : 1,
													"numoutlets" : 2,
													"outlettype" : [ "", "float" ],
													"parameter_enable" : 1,
													"patching_rect" : [ 49.0, 15.0, 97.0, 80.0 ],
													"presentation" : 1,
													"presentation_rect" : [ 3.0, 3.0, 97.0, 80.0 ],
													"saved_attribute_attributes" : 													{
														"valueof" : 														{
															"parameter_shortname" : "Bipolar Attenuator (Audio)",
															"parameter_longname" : "Bipolar Attenuator Audio[3]",
															"parameter_unitstyle" : 1,
															"parameter_mmax" : 1.0,
															"parameter_mmin" : -1.0,
															"parameter_type" : 0
														}

													}
,
													"varname" : "live.dial[1]"
												}

											}
 ],
										"lines" : [ 											{
												"patchline" : 												{
													"destination" : [ "obj-69", 0 ],
													"disabled" : 0,
													"hidden" : 0,
													"source" : [ "obj-68", 0 ]
												}

											}
, 											{
												"patchline" : 												{
													"destination" : [ "obj-67", 0 ],
													"disabled" : 0,
													"hidden" : 0,
													"source" : [ "obj-69", 0 ]
												}

											}
, 											{
												"patchline" : 												{
													"destination" : [ "obj-69", 1 ],
													"disabled" : 0,
													"hidden" : 0,
													"source" : [ "obj-70", 0 ]
												}

											}
 ]
									}
,
									"patching_rect" : [ 327.0, 75.0, 107.0, 92.0 ],
									"presentation" : 1,
									"presentation_rect" : [ 322.0, 21.0, 107.0, 92.0 ]
								}

							}
, 							{
								"box" : 								{
									"embed" : 1,
									"id" : "obj-4",
									"maxclass" : "bpatcher",
									"name" : "bipolaraudio.maxpat",
									"numinlets" : 1,
									"numoutlets" : 1,
									"outlettype" : [ "signal" ],
									"patcher" : 									{
										"fileversion" : 1,
										"appversion" : 										{
											"major" : 6,
											"minor" : 1,
											"revision" : 0,
											"architecture" : "x86"
										}
,
										"rect" : [ 242.0, 92.0, 107.0, 92.0 ],
										"bgcolor" : [ 1.0, 1.0, 1.0, 0.0 ],
										"bglocked" : 0,
										"openinpresentation" : 1,
										"default_fontsize" : 12.0,
										"default_fontface" : 0,
										"default_fontname" : "Helvetica",
										"gridonopen" : 0,
										"gridsize" : [ 15.0, 15.0 ],
										"gridsnaponopen" : 0,
										"statusbarvisible" : 1,
										"toolbarvisible" : 1,
										"boxanimatetime" : 200,
										"imprint" : 0,
										"enablehscroll" : 1,
										"enablevscroll" : 1,
										"devicewidth" : 0.0,
										"description" : "",
										"digest" : "",
										"tags" : "",
										"boxes" : [ 											{
												"box" : 												{
													"comment" : "Attenuated Audio",
													"id" : "obj-67",
													"maxclass" : "outlet",
													"numinlets" : 1,
													"numoutlets" : 0,
													"patching_rect" : [ 15.0, 131.0, 25.0, 25.0 ]
												}

											}
, 											{
												"box" : 												{
													"comment" : "Audio to be Attenuated",
													"id" : "obj-68",
													"maxclass" : "inlet",
													"numinlets" : 0,
													"numoutlets" : 1,
													"outlettype" : [ "" ],
													"patching_rect" : [ 15.0, 15.0, 25.0, 25.0 ]
												}

											}
, 											{
												"box" : 												{
													"fontname" : "Helvetica",
													"fontsize" : 12.0,
													"id" : "obj-69",
													"maxclass" : "newobj",
													"numinlets" : 2,
													"numoutlets" : 1,
													"outlettype" : [ "signal" ],
													"patching_rect" : [ 15.0, 104.5, 32.5, 18.0 ],
													"text" : "*~"
												}

											}
, 											{
												"box" : 												{
													"appearance" : 2,
													"id" : "obj-70",
													"maxclass" : "live.dial",
													"numinlets" : 1,
													"numoutlets" : 2,
													"outlettype" : [ "", "float" ],
													"parameter_enable" : 1,
													"patching_rect" : [ 49.0, 15.0, 97.0, 80.0 ],
													"presentation" : 1,
													"presentation_rect" : [ 3.0, 3.0, 97.0, 80.0 ],
													"saved_attribute_attributes" : 													{
														"valueof" : 														{
															"parameter_shortname" : "Bipolar Attenuator (Audio)",
															"parameter_longname" : "Bipolar Attenuator Audio[2]",
															"parameter_unitstyle" : 1,
															"parameter_mmax" : 1.0,
															"parameter_mmin" : -1.0,
															"parameter_type" : 0
														}

													}
,
													"varname" : "live.dial[1]"
												}

											}
 ],
										"lines" : [ 											{
												"patchline" : 												{
													"destination" : [ "obj-69", 0 ],
													"disabled" : 0,
													"hidden" : 0,
													"source" : [ "obj-68", 0 ]
												}

											}
, 											{
												"patchline" : 												{
													"destination" : [ "obj-67", 0 ],
													"disabled" : 0,
													"hidden" : 0,
													"source" : [ "obj-69", 0 ]
												}

											}
, 											{
												"patchline" : 												{
													"destination" : [ "obj-69", 1 ],
													"disabled" : 0,
													"hidden" : 0,
													"source" : [ "obj-70", 0 ]
												}

											}
 ]
									}
,
									"patching_rect" : [ 220.0, 75.0, 107.0, 92.0 ],
									"presentation" : 1,
									"presentation_rect" : [ 215.0, 21.0, 107.0, 92.0 ]
								}

							}
, 							{
								"box" : 								{
									"embed" : 1,
									"id" : "obj-3",
									"maxclass" : "bpatcher",
									"name" : "bipolaraudio.maxpat",
									"numinlets" : 1,
									"numoutlets" : 1,
									"outlettype" : [ "signal" ],
									"patcher" : 									{
										"fileversion" : 1,
										"appversion" : 										{
											"major" : 6,
											"minor" : 1,
											"revision" : 0,
											"architecture" : "x86"
										}
,
										"rect" : [ 135.0, 92.0, 107.0, 92.0 ],
										"bgcolor" : [ 1.0, 1.0, 1.0, 0.0 ],
										"bglocked" : 0,
										"openinpresentation" : 1,
										"default_fontsize" : 12.0,
										"default_fontface" : 0,
										"default_fontname" : "Helvetica",
										"gridonopen" : 0,
										"gridsize" : [ 15.0, 15.0 ],
										"gridsnaponopen" : 0,
										"statusbarvisible" : 1,
										"toolbarvisible" : 1,
										"boxanimatetime" : 200,
										"imprint" : 0,
										"enablehscroll" : 1,
										"enablevscroll" : 1,
										"devicewidth" : 0.0,
										"description" : "",
										"digest" : "",
										"tags" : "",
										"boxes" : [ 											{
												"box" : 												{
													"comment" : "Attenuated Audio",
													"id" : "obj-67",
													"maxclass" : "outlet",
													"numinlets" : 1,
													"numoutlets" : 0,
													"patching_rect" : [ 15.0, 131.0, 25.0, 25.0 ]
												}

											}
, 											{
												"box" : 												{
													"comment" : "Audio to be Attenuated",
													"id" : "obj-68",
													"maxclass" : "inlet",
													"numinlets" : 0,
													"numoutlets" : 1,
													"outlettype" : [ "" ],
													"patching_rect" : [ 15.0, 15.0, 25.0, 25.0 ]
												}

											}
, 											{
												"box" : 												{
													"fontname" : "Helvetica",
													"fontsize" : 12.0,
													"id" : "obj-69",
													"maxclass" : "newobj",
													"numinlets" : 2,
													"numoutlets" : 1,
													"outlettype" : [ "signal" ],
													"patching_rect" : [ 15.0, 104.5, 32.5, 18.0 ],
													"text" : "*~"
												}

											}
, 											{
												"box" : 												{
													"appearance" : 2,
													"id" : "obj-70",
													"maxclass" : "live.dial",
													"numinlets" : 1,
													"numoutlets" : 2,
													"outlettype" : [ "", "float" ],
													"parameter_enable" : 1,
													"patching_rect" : [ 49.0, 15.0, 97.0, 80.0 ],
													"presentation" : 1,
													"presentation_rect" : [ 3.0, 3.0, 97.0, 80.0 ],
													"saved_attribute_attributes" : 													{
														"valueof" : 														{
															"parameter_shortname" : "Bipolar Attenuator (Audio)",
															"parameter_longname" : "Bipolar Attenuator Audio[1]",
															"parameter_unitstyle" : 1,
															"parameter_mmax" : 1.0,
															"parameter_mmin" : -1.0,
															"parameter_type" : 0
														}

													}
,
													"varname" : "live.dial[1]"
												}

											}
 ],
										"lines" : [ 											{
												"patchline" : 												{
													"destination" : [ "obj-69", 0 ],
													"disabled" : 0,
													"hidden" : 0,
													"source" : [ "obj-68", 0 ]
												}

											}
, 											{
												"patchline" : 												{
													"destination" : [ "obj-67", 0 ],
													"disabled" : 0,
													"hidden" : 0,
													"source" : [ "obj-69", 0 ]
												}

											}
, 											{
												"patchline" : 												{
													"destination" : [ "obj-69", 1 ],
													"disabled" : 0,
													"hidden" : 0,
													"source" : [ "obj-70", 0 ]
												}

											}
 ]
									}
,
									"patching_rect" : [ 113.0, 75.0, 107.0, 92.0 ],
									"presentation" : 1,
									"presentation_rect" : [ 108.0, 21.0, 107.0, 92.0 ]
								}

							}
, 							{
								"box" : 								{
									"embed" : 1,
									"id" : "obj-1",
									"maxclass" : "bpatcher",
									"name" : "bipolaraudio.maxpat",
									"numinlets" : 1,
									"numoutlets" : 1,
									"outlettype" : [ "signal" ],
									"patcher" : 									{
										"fileversion" : 1,
										"appversion" : 										{
											"major" : 6,
											"minor" : 1,
											"revision" : 0,
											"architecture" : "x86"
										}
,
										"rect" : [ 28.0, 92.0, 107.0, 92.0 ],
										"bgcolor" : [ 1.0, 1.0, 1.0, 0.0 ],
										"bglocked" : 0,
										"openinpresentation" : 1,
										"default_fontsize" : 12.0,
										"default_fontface" : 0,
										"default_fontname" : "Helvetica",
										"gridonopen" : 0,
										"gridsize" : [ 15.0, 15.0 ],
										"gridsnaponopen" : 0,
										"statusbarvisible" : 1,
										"toolbarvisible" : 1,
										"boxanimatetime" : 200,
										"imprint" : 0,
										"enablehscroll" : 1,
										"enablevscroll" : 1,
										"devicewidth" : 0.0,
										"description" : "",
										"digest" : "",
										"tags" : "",
										"boxes" : [ 											{
												"box" : 												{
													"comment" : "Attenuated Audio",
													"id" : "obj-67",
													"maxclass" : "outlet",
													"numinlets" : 1,
													"numoutlets" : 0,
													"patching_rect" : [ 15.0, 131.0, 25.0, 25.0 ]
												}

											}
, 											{
												"box" : 												{
													"comment" : "Audio to be Attenuated",
													"id" : "obj-68",
													"maxclass" : "inlet",
													"numinlets" : 0,
													"numoutlets" : 1,
													"outlettype" : [ "" ],
													"patching_rect" : [ 15.0, 15.0, 25.0, 25.0 ]
												}

											}
, 											{
												"box" : 												{
													"fontname" : "Helvetica",
													"fontsize" : 12.0,
													"id" : "obj-69",
													"maxclass" : "newobj",
													"numinlets" : 2,
													"numoutlets" : 1,
													"outlettype" : [ "signal" ],
													"patching_rect" : [ 15.0, 104.5, 32.5, 18.0 ],
													"text" : "*~"
												}

											}
, 											{
												"box" : 												{
													"appearance" : 2,
													"id" : "obj-70",
													"maxclass" : "live.dial",
													"numinlets" : 1,
													"numoutlets" : 2,
													"outlettype" : [ "", "float" ],
													"parameter_enable" : 1,
													"patching_rect" : [ 49.0, 15.0, 97.0, 80.0 ],
													"presentation" : 1,
													"presentation_rect" : [ 3.0, 3.0, 97.0, 80.0 ],
													"saved_attribute_attributes" : 													{
														"valueof" : 														{
															"parameter_shortname" : "Bipolar Attenuator (Audio)",
															"parameter_longname" : "Bipolar Attenuator Audio",
															"parameter_unitstyle" : 1,
															"parameter_mmax" : 1.0,
															"parameter_mmin" : -1.0,
															"parameter_type" : 0
														}

													}
,
													"varname" : "live.dial[1]"
												}

											}
 ],
										"lines" : [ 											{
												"patchline" : 												{
													"destination" : [ "obj-69", 0 ],
													"disabled" : 0,
													"hidden" : 0,
													"source" : [ "obj-68", 0 ]
												}

											}
, 											{
												"patchline" : 												{
													"destination" : [ "obj-67", 0 ],
													"disabled" : 0,
													"hidden" : 0,
													"source" : [ "obj-69", 0 ]
												}

											}
, 											{
												"patchline" : 												{
													"destination" : [ "obj-69", 1 ],
													"disabled" : 0,
													"hidden" : 0,
													"source" : [ "obj-70", 0 ]
												}

											}
 ]
									}
,
									"patching_rect" : [ 6.0, 75.0, 107.0, 92.0 ],
									"presentation" : 1,
									"presentation_rect" : [ 1.0, 21.0, 107.0, 92.0 ]
								}

							}
 ],
						"lines" : [ 							{
								"patchline" : 								{
									"destination" : [ "obj-10", 0 ],
									"disabled" : 0,
									"hidden" : 0,
									"source" : [ "obj-1", 0 ]
								}

							}
, 							{
								"patchline" : 								{
									"destination" : [ "obj-12", 0 ],
									"disabled" : 0,
									"hidden" : 0,
									"source" : [ "obj-10", 0 ]
								}

							}
, 							{
								"patchline" : 								{
									"destination" : [ "obj-12", 1 ],
									"disabled" : 0,
									"hidden" : 0,
									"source" : [ "obj-11", 0 ]
								}

							}
, 							{
								"patchline" : 								{
									"destination" : [ "obj-9", 0 ],
									"disabled" : 0,
									"hidden" : 0,
									"source" : [ "obj-12", 0 ]
								}

							}
, 							{
								"patchline" : 								{
									"destination" : [ "obj-3", 0 ],
									"disabled" : 0,
									"hidden" : 0,
									"source" : [ "obj-13", 0 ]
								}

							}
, 							{
								"patchline" : 								{
									"destination" : [ "obj-4", 0 ],
									"disabled" : 0,
									"hidden" : 0,
									"source" : [ "obj-14", 0 ]
								}

							}
, 							{
								"patchline" : 								{
									"destination" : [ "obj-5", 0 ],
									"disabled" : 0,
									"hidden" : 0,
									"source" : [ "obj-15", 0 ]
								}

							}
, 							{
								"patchline" : 								{
									"destination" : [ "obj-10", 1 ],
									"disabled" : 0,
									"hidden" : 0,
									"source" : [ "obj-3", 0 ]
								}

							}
, 							{
								"patchline" : 								{
									"destination" : [ "obj-11", 0 ],
									"disabled" : 0,
									"hidden" : 0,
									"source" : [ "obj-4", 0 ]
								}

							}
, 							{
								"patchline" : 								{
									"destination" : [ "obj-11", 1 ],
									"disabled" : 0,
									"hidden" : 0,
									"source" : [ "obj-5", 0 ]
								}

							}
, 							{
								"patchline" : 								{
									"destination" : [ "obj-1", 0 ],
									"disabled" : 0,
									"hidden" : 0,
									"source" : [ "obj-8", 0 ]
								}

							}
 ]
					}
,
					"patching_rect" : [ 2.0, 2.0, 430.0, 113.0 ]
				}

			}
 ],
		"lines" : [  ],
		"parameters" : 		{
			"obj-1::obj-1::obj-70" : [ "Bipolar Attenuator Audio", "Bipolar Attenuator (Audio)", 0 ],
			"obj-1::obj-3::obj-70" : [ "Bipolar Attenuator Audio[1]", "Bipolar Attenuator (Audio)", 0 ],
			"obj-1::obj-4::obj-70" : [ "Bipolar Attenuator Audio[2]", "Bipolar Attenuator (Audio)", 0 ],
			"obj-1::obj-5::obj-70" : [ "Bipolar Attenuator Audio[3]", "Bipolar Attenuator (Audio)", 0 ]
		}
,
		"dependency_cache" : [ 			{
				"name" : "bipolarmixeraudio.maxpat",
				"bootpath" : "/Users/Tricky/Dropbox/Max Files/Max 6/Euromax Updates",
				"patcherrelativepath" : "",
				"type" : "JSON",
				"implicit" : 1
			}
, 			{
				"name" : "bipolaraudio.maxpat",
				"bootpath" : "/Users/Tricky/Dropbox/Max Files/Max 6/Euromax Updates",
				"patcherrelativepath" : "",
				"type" : "JSON",
				"implicit" : 1
			}
 ]
	}

}
